<?xml version="1.0" encoding="UTF-8"?>
<svg width="22px" height="22px" viewBox="0 0 22 22" version="1.1" xmlns="http://www.w3.org/2000/svg" xmlns:xlink="http://www.w3.org/1999/xlink">
    <!-- Generator: Sketch 52.2 (67145) - http://www.bohemiancoding.com/sketch -->
    <title>Group 18</title>
    <desc>Created with Sketch.</desc>
    <defs>
        <linearGradient x1="0%" y1="50%" x2="99.0561777%" y2="50%" id="linearGradient-1">
            <stop stop-color="#EE5A5A" offset="0%"></stop>
            <stop stop-color="#EA3131" offset="100%"></stop>
        </linearGradient>
    </defs>
    <g id="改版" stroke="none" stroke-width="1" fill="none" fill-rule="evenodd">
        <g id="我的" transform="translate(-28.000000, -309.000000)">
            <g id="Group-10" transform="translate(28.000000, 309.000000)">
                <g id="分组-20-copy">
                    <g id="Group-18">
                        <g id="Group-7" fill="url(#linearGradient-1)" fill-rule="nonzero">
                            <circle id="椭圆形-copy-3" cx="11" cy="11" r="11"></circle>
                        </g>
                        <g id="分组-2" transform="translate(5.000000, 7.000000)" fill="#FFFFFF">
                            <g id="weibiaoti-">
                                <path d="M10.5317647,8.06666667 L1.44,8.06666667 C0.649411768,8.06666667 0,7.47009646 0,6.74383709 L0,1.32282958 C0,0.596570207 0.649411768,0 1.44,0 L10.56,0 C11.3505882,0 12,0.596570207 12,1.32282958 L12,6.74383709 C11.9717647,7.47009646 11.3223529,8.06666667 10.5317647,8.06666667 Z M1.44,0.492818866 C0.960000003,0.492818866 0.564705876,0.855948553 0.564705876,1.29689175 L0.564705876,6.71789926 C0.564705876,7.15884245 0.959999991,7.52197215 1.44,7.52197214 L10.56,7.52197214 C11.04,7.52197214 11.4352941,7.15884245 11.4352941,6.71789926 L11.4352941,1.32282958 C11.4352941,0.881886391 11.04,0.518756693 10.56,0.518756704 L1.44,0.518756704 L1.44,0.492818866 Z" id="形状" stroke="#FFFFFF" stroke-width="0.2" fill-rule="nonzero"></path>
                                <path d="M8.8,4.4 C8.79999999,4.66199476 8.9400902,4.90408791 9.16749999,5.0350853 C9.39490979,5.16608268 9.67509021,5.16608268 9.90250001,5.0350853 C10.1299098,4.90408791 10.27,4.66199476 10.27,4.4 C10.27,4.13800524 10.1299098,3.89591209 9.90250001,3.7649147 C9.67509021,3.63391732 9.39490979,3.63391732 9.16749999,3.7649147 C8.9400902,3.89591209 8.79999999,4.13800524 8.8,4.4 Z" id="路径"></path>
                                <path d="M11.9718062,5.86666667 L7.23524229,5.86666667 C6.33303965,5.86666667 5.6,5.2091954 5.6,4.4 C5.6,3.5908046 6.33303965,2.93333333 7.23524229,2.93333333 L12,2.93333333 L12,5.86666667 L11.9718062,5.86666667 Z M7.23524229,3.43908045 C6.64317181,3.43908045 6.16387665,3.86896551 6.16387665,4.4 C6.16387665,4.93103448 6.6431718,5.36091955 7.23524229,5.36091955 L11.4361233,5.36091955 L11.4361233,3.43908045 L7.23524229,3.43908045 Z" id="形状" stroke="#FFFFFF" stroke-width="0.2" fill-rule="nonzero"></path>
                            </g>
                        </g>
                    </g>
                </g>
            </g>
        </g>
    </g>
</svg>