<?xml version="1.0" encoding="UTF-8"?>
<svg width="22px" height="23px" viewBox="0 0 22 23" version="1.1" xmlns="http://www.w3.org/2000/svg" xmlns:xlink="http://www.w3.org/1999/xlink">
    <!-- Generator: Sketch 52.2 (67145) - http://www.bohemiancoding.com/sketch -->
    <title>Group 19</title>
    <desc>Created with Sketch.</desc>
    <defs>
        <linearGradient x1="0%" y1="50%" x2="99.0561777%" y2="50%" id="linearGradient-1">
            <stop stop-color="#EE5A5A" offset="0%"></stop>
            <stop stop-color="#EA3131" offset="100%"></stop>
        </linearGradient>
    </defs>
    <g id="改版" stroke="none" stroke-width="1" fill="none" fill-rule="evenodd">
        <g id="我的" transform="translate(-28.000000, -450.000000)" fill-rule="nonzero">
            <g id="Group-11" transform="translate(28.000000, 450.000000)">
                <g id="分组-14-copy">
                    <g id="分组-19" transform="translate(0.000000, 0.375000)">
                        <g id="Group-19">
                            <g id="Group-8" fill="url(#linearGradient-1)">
                                <circle id="椭圆形-copy-4" cx="11" cy="11" r="11"></circle>
                            </g>
                            <g id="常见问题" transform="translate(7.000000, 4.625000)" fill="#FFFFFF">
                                <g id="问题">
                                    <path d="M4.19042651,11.012978 C4.19042651,11.2893236 3.96623356,11.5129359 3.69042651,11.5129359 C3.4140484,11.5129359 3.19042651,11.2881816 3.19042651,11.012978 C3.19042651,10.7366493 3.4140484,10.513037 3.69042651,10.513037 C3.96625035,10.513037 4.19042651,10.7366493 4.19042651,11.012978 Z M7.1965332,3.36612986 C7.1965332,3.87984186 7.0755874,4.35604421 6.83276202,4.78913519 C6.59087039,5.2240934 6.04812622,5.67635489 5.30981445,6.375 C4.57150269,7.07364511 4.5512085,7.23936462 4.51245117,7.27760315 C4.47369385,7.31584167 4.27270508,7.78282166 4.23316956,8 C4.19363403,8.21717834 4.16387665,8.56918384 4.16387665,9.24188257 C4.16387665,9.9145813 3.25707852,9.8704834 3.25707852,9.24188257 C3.25707852,8.61328174 3.25707852,8.90443298 3.25707852,8.80881906 C3.25707852,8.23884257 3.33864279,7.74764735 3.49897016,7.33517846 C3.61804852,7.02208545 3.80836516,6.70896495 4.07181502,6.39213743 C4.26399914,6.16153271 4.61277565,5.82216094 5.1152885,5.37970628 C5.61780134,4.93725163 5.94501963,4.58478172 6.09502102,4.32229652 C6.24502238,4.05981132 6.32098426,3.77296957 6.32098426,3.46174378 C6.32098426,2.89739648 6.13372405,2.37405034 5.69308472,1.94845581 C5.25326926,1.52286128 4.67926291,1.33753309 4.0398484,1.33753309 C3.42108587,1.33753309 2.94156415,1.42624216 2.54141235,1.82357788 C2.14126056,2.22091361 1.85229492,2.80544557 1.85229492,3.46174378 C1.85229492,4.11804199 1.03804835,4.17809734 0.996410651,3.41714315 C0.954772949,2.65618896 1.34778936,1.74549183 2.01062957,1.16052246 C2.67346976,0.575580545 3.60751753,0.423339844 4.00735751,0.423339844 C4.40719749,0.423339844 5.50915592,0.532441698 6.19825047,1.16052246 C6.8864113,1.78860322 7.1965332,2.47556393 7.1965332,3.36612986 Z" id="Shape"></path>
                                </g>
                            </g>
                        </g>
                    </g>
                </g>
            </g>
        </g>
    </g>
</svg>