<?xml version="1.0" encoding="UTF-8"?>
<svg preserveAspectRatio="none" viewBox="0 0 26 26" version="1.1" xmlns="http://www.w3.org/2000/svg" xmlns:xlink="http://www.w3.org/1999/xlink">
    <!-- Generator: Sketch 52.2 (67145) - http://www.bohemiancoding.com/sketch -->
    <title>diqiu</title>
    <desc>Created with Sketch.</desc>
    <g id="改版" stroke="none" stroke-width="1" fill="none" fill-rule="evenodd">
        <g id="实名认证-护照" transform="translate(-83.000000, -319.000000)" fill="#6D6D6D" fill-rule="nonzero">
            <g id="diqiu" transform="translate(83.000000, 319.000000)">
                <path d="M13,26 C9.27333333,26 5.89333333,24.44 3.55333333,21.9266667 L3.46666667,21.84 C1.3,19.4133333 0,16.38 0,13 C0,9.62 1.3,6.58666667 3.38,4.24666667 L3.46666667,4.16 C5.89333333,1.56 9.27333333,0 13,0 C16.7266667,0 20.1066667,1.56 22.4466667,4.07333333 L22.5333333,4.16 C24.7,6.58666667 26,9.62 26,13 C26,16.38 24.7,19.4133333 22.62,21.7533333 C22.62,21.84 22.5333333,21.84 22.5333333,21.9266667 C20.1066667,24.44 16.7266667,26 13,26 Z M13.8666667,18.2 L13.8666667,24.0933333 C15.2533333,23.5733333 16.5533333,21.7533333 17.3333333,19.0666667 C16.2933333,18.6333333 15.08,18.2866667 13.8666667,18.2 Z M8.66666667,19.0666667 C9.44666667,21.7533333 10.8333333,23.5733333 12.1333333,24.0933333 L12.1333333,18.2 C10.92,18.2866667 9.70666667,18.6333333 8.66666667,19.0666667 Z M18.8933333,19.8466667 C18.46,21.2333333 17.8533333,22.4466667 17.16,23.4 C18.46,22.88 19.6733333,22.1 20.7133333,21.1466667 C20.1066667,20.7133333 19.5866667,20.28 18.8933333,19.8466667 Z M5.28666667,21.2333333 C6.32666667,22.1866667 7.54,22.9666667 8.84,23.4866667 C8.14666667,22.5333333 7.54,21.32 7.10666667,19.9333333 C6.41333333,20.28 5.89333333,20.7133333 5.28666667,21.2333333 Z M19.4133333,18.1133333 C20.28,18.6333333 21.1466667,19.24 21.9266667,19.9333333 C23.2266667,18.2 24.0933333,16.12 24.2666667,13.8666667 L19.9333333,13.8666667 C19.8466667,15.4266667 19.6733333,16.8133333 19.4133333,18.1133333 Z M1.73333333,13.8666667 C1.90666667,16.12 2.77333333,18.2866667 4.07333333,19.9333333 C4.85333333,19.24 5.63333333,18.6333333 6.58666667,18.1133333 C6.32666667,16.8133333 6.15333333,15.4266667 6.06666667,13.8666667 L1.73333333,13.8666667 Z M13.8666667,16.4666667 C15.2533333,16.5533333 16.5533333,16.9 17.7666667,17.3333333 C17.94,16.2933333 18.1133333,15.08 18.2,13.78 L13.8666667,13.78 L13.8666667,16.4666667 Z M7.8,13.8666667 C7.88666667,15.1666667 7.97333333,16.2933333 8.23333333,17.42 C9.44666667,16.9 10.8333333,16.64 12.1333333,16.5533333 L12.1333333,13.9533333 L7.8,13.9533333 L7.8,13.8666667 Z M19.9333333,12.1333333 L24.2666667,12.1333333 C24.0933333,9.88 23.2266667,7.71333333 21.9266667,6.06666667 C21.1466667,6.76 20.3666667,7.36666667 19.4133333,7.88666667 C19.6733333,9.18666667 19.8466667,10.5733333 19.9333333,12.1333333 Z M13.8666667,12.1333333 L18.2,12.1333333 C18.1133333,10.8333333 18.0266667,9.70666667 17.7666667,8.58 C16.5533333,9.1 15.1666667,9.36 13.8666667,9.44666667 L13.8666667,12.1333333 Z M7.8,12.1333333 L12.1333333,12.1333333 L12.1333333,9.53333333 C10.7466667,9.44666667 9.44666667,9.1 8.23333333,8.66666667 C7.97333333,9.70666667 7.88666667,10.8333333 7.8,12.1333333 Z M1.73333333,12.1333333 L6.06666667,12.1333333 C6.15333333,10.5733333 6.32666667,9.18666667 6.58666667,7.88666667 C5.72,7.36666667 4.85333333,6.76 4.07333333,6.06666667 C2.77333333,7.71333333 1.90666667,9.88 1.73333333,12.1333333 Z M8.66666667,6.93333333 C9.79333333,7.36666667 10.92,7.71333333 12.1333333,7.8 L12.1333333,1.90666667 C10.7466667,2.42666667 9.44666667,4.24666667 8.66666667,6.93333333 Z M13.8666667,1.90666667 L13.8666667,7.8 C15.08,7.71333333 16.2933333,7.45333333 17.3333333,6.93333333 C16.5533333,4.24666667 15.2533333,2.42666667 13.8666667,1.90666667 Z M5.28666667,4.76666667 C5.80666667,5.28666667 6.41333333,5.72 7.02,6.15333333 C7.45333333,4.76666667 8.06,3.55333333 8.75333333,2.6 C7.54,3.03333333 6.32666667,3.81333333 5.28666667,4.76666667 Z M17.16,2.51333333 C17.8533333,3.46666667 18.46,4.68 18.8933333,6.06666667 C19.5,5.72 20.1066667,5.2 20.6266667,4.68 C19.6733333,3.81333333 18.46,3.03333333 17.16,2.51333333 Z" id="Shape"></path>
            </g>
        </g>
    </g>
</svg>