<?xml version="1.0" encoding="UTF-8"?>
<svg width="22px" height="23px" viewBox="0 0 22 23" version="1.1" xmlns="http://www.w3.org/2000/svg" xmlns:xlink="http://www.w3.org/1999/xlink">
    <!-- Generator: Sketch 52.2 (67145) - http://www.bohemiancoding.com/sketch -->
    <title>Group 23</title>
    <desc>Created with Sketch.</desc>
    <defs>
        <linearGradient x1="0%" y1="50%" x2="99.0561777%" y2="50%" id="linearGradient-1">
            <stop stop-color="#EE5A5A" offset="0%"></stop>
            <stop stop-color="#EA3131" offset="100%"></stop>
        </linearGradient>
    </defs>
    <g id="改版" stroke="none" stroke-width="1" fill="none" fill-rule="evenodd">
        <g id="我的" transform="translate(-28.000000, -638.000000)" fill-rule="nonzero">
            <g id="Group-12" transform="translate(28.000000, 638.000000)">
                <g id="分组-22-copy">
                    <g id="分组-18" transform="translate(0.000000, 0.375000)">
                        <g id="Group-23">
                            <g id="Group-9" fill="url(#linearGradient-1)">
                                <g id="分组-17">
                                    <g id="分组-16">
                                        <g id="设置-(1)">
                                            <circle id="椭圆形-copy-5" cx="11" cy="11" r="11"></circle>
                                        </g>
                                    </g>
                                </g>
                            </g>
                            <g id="设置" transform="translate(5.000000, 5.625000)" fill="#FFFFFF">
                                <g id="设置-(1)">
                                    <path d="M11.8402662,6.85053217 C11.8003328,7.05061732 11.6206323,7.21068544 11.4009983,7.23069395 C10.9417637,7.2907195 10.5424293,7.53082167 10.3028286,7.93099197 C10.0632279,8.33116226 10.0432612,8.81136662 10.2429284,9.23154542 C10.3427621,9.43163057 10.3028286,9.65172424 10.1430948,9.79178384 C9.48419301,10.4120478 8.68552413,10.8922522 7.80698835,11.1723714 C7.58735441,11.2524054 7.34775374,11.1523628 7.22795341,10.9522777 C6.96838603,10.5120904 6.4891847,10.2319712 5.97004992,10.2319712 C5.45091514,10.2319712 4.97171382,10.4920818 4.71214643,10.9522777 C4.5923461,11.1523628 4.35274543,11.2524054 4.13311148,11.1723714 C3.27454242,10.8922522 2.47587355,10.4320563 1.81697172,9.79178384 C1.65723794,9.65172424 1.61730451,9.41162207 1.7171381,9.23154542 C1.91680532,8.81136661 1.8968386,8.31115375 1.65723794,7.91098346 C1.41763729,7.51081317 1.01830284,7.27071099 0.55906823,7.21068544 C0.339434293,7.19067693 0.179700513,7.03060881 0.119800342,6.83052366 C0.039933452,6.43035337 1.40665216e-08,6.01017456 0,5.61000426 C-1.40665216e-08,5.20983395 0.039933438,4.78965515 0.139767061,4.36947634 C0.179700499,4.16939119 0.359400998,4.00932307 0.579034949,3.98931456 C1.03826956,3.92928901 1.43760401,3.66917832 1.67720466,3.28901654 C1.91680533,2.88884625 1.93677205,2.38863338 1.73710483,1.96845458 C1.63727122,1.76836943 1.6971714,1.54827576 1.83693844,1.40821616 C2.49584027,0.787952196 3.29450915,0.307747847 4.15307821,0.0276286426 C4.37271215,-0.052405418 4.61231282,0.0476371543 4.73211315,0.247722312 C4.99168054,0.687909638 5.47088186,0.968028843 5.99001664,0.968028843 C6.50915142,0.968028843 6.98835274,0.70791815 7.24792013,0.247722312 C7.36772046,0.0476371682 7.60732113,-0.0524054039 7.82695507,0.0276286426 C8.68552413,0.307747847 9.50415973,0.767943685 10.1630616,1.40821616 C10.3227953,1.54827576 10.3627288,1.78837793 10.2628952,1.96845458 C10.063228,2.38863339 10.0831947,2.88884625 10.3227953,3.26900803 C10.562396,3.66917832 10.9617304,3.9092805 11.4209651,3.96930605 C11.640599,3.98931456 11.8003328,4.14938268 11.8602329,4.34946783 C11.9600665,4.76964664 12,5.18982544 12,5.58999574 C11.9800333,6.03018307 11.9400998,6.45036188 11.8402662,6.85053217 Z M11.1014975,4.7296296 C10.4825291,4.58956999 9.94342762,4.20940822 9.62396006,3.66917833 C9.28452578,3.10893992 9.22462562,2.42865042 9.46422629,1.82839497 C8.98502497,1.40821616 8.40599002,1.06807142 7.80698835,0.847977745 C7.38768718,1.40821616 6.70881864,1.74836091 5.99001664,1.74836091 C5.27121464,1.74836091 4.61231282,1.40821616 4.17304493,0.847977745 C3.57404326,1.0680714 3.01497505,1.40821616 2.51580699,1.82839497 C2.73544092,2.42865042 2.67554077,3.10893991 2.33610649,3.66917833 C2.01663893,4.20940823 1.47753743,4.58957001 0.858569057,4.7296296 C0.798668886,5.02975732 0.778702167,5.30987653 0.778702167,5.61000426 C0.778702167,5.89012346 0.798668886,6.19025118 0.858569057,6.49037891 C1.47753744,6.63043852 2.01663894,6.99059178 2.33610649,7.55083019 C2.67554077,8.1110686 2.73544092,8.79135811 2.51580699,9.39161354 C2.99500831,9.81179236 3.55407654,10.1519371 4.17304493,10.3720308 C4.5923461,9.81179236 5.27121464,9.4716476 5.99001664,9.4716476 C6.70881864,9.4716476 7.3876872,9.81179236 7.80698835,10.3720308 C8.40599002,10.1519371 8.98502495,9.81179236 9.46422629,9.39161354 C9.24459236,8.7913581 9.30449251,8.1110686 9.62396006,7.55083019 C9.94342762,7.01060029 10.4825291,6.63043852 11.1014975,6.49037891 C11.1613977,6.19025119 11.1813644,5.91013199 11.1813644,5.61000426 C11.1813644,5.32988505 11.1613977,5.02975733 11.1014975,4.7296296 Z M5.99001664,8.01102603 C4.67221298,8.01102603 3.59400998,6.93056623 3.59400998,5.61000426 C3.59400998,4.28944228 4.67221298,3.20898248 5.99001664,3.20898248 C7.30782031,3.20898248 8.3860233,4.28944228 8.3860233,5.61000426 C8.3860233,6.93056623 7.30782031,8.01102603 5.99001664,8.01102603 Z M5.99001664,4.00932307 C5.11148086,4.00932307 4.39267887,4.7296296 4.39267887,5.61000426 C4.39267887,6.49037891 5.11148086,7.21068544 5.99001664,7.21068544 C6.86855242,7.21068544 7.58735441,6.49037891 7.58735441,5.61000426 C7.58735441,4.7296296 6.86855242,4.00932307 5.99001664,4.00932307 Z" id="Shape"></path>
                                </g>
                            </g>
                        </g>
                    </g>
                </g>
            </g>
        </g>
    </g>
</svg>