<?xml version="1.0" encoding="UTF-8"?>
<svg width="55px" height="22px" viewBox="0 0 55 22" version="1.1" xmlns="http://www.w3.org/2000/svg" xmlns:xlink="http://www.w3.org/1999/xlink">
    <!-- Generator: Sketch 52.2 (67145) - http://www.bohemiancoding.com/sketch -->
    <title>Group 17</title>
    <desc>Created with Sketch.</desc>
    <defs>
        <linearGradient x1="50%" y1="0%" x2="50%" y2="100%" id="linearGradient-1">
            <stop stop-color="#FFF3A6" offset="0%"></stop>
            <stop stop-color="#FFD430" offset="100%"></stop>
        </linearGradient>
        <linearGradient x1="50%" y1="0%" x2="50%" y2="100%" id="linearGradient-2">
            <stop stop-color="#FFF09D" offset="0%"></stop>
            <stop stop-color="#FFD638" offset="98.5120123%"></stop>
        </linearGradient>
    </defs>
    <g id="改版" stroke="none" stroke-width="1" fill="none" fill-rule="evenodd">
        <g id="我的" transform="translate(-81.000000, -144.000000)">
            <g id="Group-17" transform="translate(82.000000, 145.000000)">
                <g id="Group-14-Copy" transform="translate(21.000000, 3.000000)">
                    <path d="M0.5,0.5 L0.5,16.5 L31,16.5 C31.8284271,16.5 32.5,15.8284271 32.5,15 L32.5,2 C32.5,1.17157288 31.8284271,0.5 31,0.5 L0.5,0.5 Z" id="Rectangle" stroke="#FDB610" fill="url(#linearGradient-1)"></path>
                    <text id="VIP" font-family="PingFangSC-Medium, PingFang SC" font-size="12" font-weight="400" fill="#FF0021">
                        <tspan x="9" y="13">VIP</tspan>
                    </text>
                </g>
                <g id="xianxing_huangguan" fill-rule="nonzero" stroke-width="0.8">
                    <g id="Group-14">
                        <path d="M24.3698881,6.89969819 C23.999565,5.93029043 23.4861902,5.10402359 22.8436784,4.44167619 C22.1618639,3.73956742 21.367024,3.257044 20.4813732,3.00770176 C19.5957223,2.75835951 18.6778482,2.75861604 17.753383,3.00770176 C17.085239,3.18726922 16.4363802,3.49356 15.8175475,3.91656963 C15.5998912,3.74383152 15.3715465,3.58649126 15.1340242,3.44558983 C14.8916449,3.30159365 14.6395277,3.17650047 14.3797075,3.07131994 C14.7746276,2.15988437 14.525164,1.08284673 13.7758175,0.464077172 C13.026471,-0.154692391 11.9716132,-0.154692391 11.2222667,0.464077172 C10.4729202,1.08284673 10.2234565,2.15988437 10.6183767,3.07131994 C10.3585551,3.17649706 10.1064376,3.30159036 9.86405993,3.44558983 C9.62653769,3.58649126 9.39819303,3.74383152 9.18053668,3.91656963 C8.56170401,3.49330347 7.91284515,3.18829532 7.24470116,3.00770176 C6.31999184,2.75784646 5.40211776,2.75758994 4.51671102,3.00770176 C3.63130429,3.25781358 2.83768496,3.74059352 2.15587051,4.44167619 C1.51335865,5.10325402 0.999983864,5.92952086 0.629660728,6.89969819 C-0.110985544,8.83877024 -0.201552376,11.1521122 0.375536545,13.4133795 C0.729503946,14.8016925 1.30317525,16.0622561 2.07921826,17.1601829 C2.2267473,17.3680684 2.45908115,17.4904735 2.70586262,17.4903305 L22.2936862,17.4903305 C22.5407263,17.4903132 22.7731999,17.3675017 22.9205747,17.1591568 C23.697106,16.06123 24.270289,14.8006664 24.6242564,13.4123534 C25.2020777,11.1521122 25.1105344,8.83877024 24.3698881,6.89969819 Z" id="Path" stroke="#FDB610" fill="url(#linearGradient-2)"></path>
                        <path d="M12.4997744,1.64427168 C12.7781802,1.64441339 13.0037634,1.88169373 13.0036286,2.17425218 C13.0034938,2.46681062 12.777692,2.70386124 12.4992862,2.70371958 C12.2208804,2.70357791 11.9952971,2.46629761 11.9954319,2.17373917 C11.9958358,1.88129803 12.22148,1.64441286 12.4997744,1.64427168 Z" id="Path" stroke="#EA3131" fill="#EA3131"></path>
                        <path d="M12.4997744,4.34547933 C13.7935863,4.34547933 15.0231958,5.07170145 15.964505,6.39049618 C16.956102,7.77983527 17.5024323,9.63989763 17.5024323,11.6279659 C17.5024323,13.1386413 17.1723882,14.6195598 16.5667378,15.8495969 L8.43305517,15.8495969 C7.82764886,14.6182772 7.49736065,13.1386413 7.49736065,11.6279659 C7.49736065,9.63989763 8.04344691,7.7800918 9.03528798,6.39049618 C9.97635304,5.07170145 11.2066949,4.34522281 12.4997744,4.34522281 L12.4997744,4.34547933 Z" id="Path" stroke="#FDB610" fill="#EA3131"></path>
                        <path d="M1.88417002,12.9883177 C1.39447443,11.067972 1.46380322,9.12274335 2.07946238,7.51099713 C2.66387476,5.98108237 3.67353626,4.9457477 4.9224309,4.59328243 C5.92135132,4.31110499 6.99741221,4.49067245 8.01781479,5.09478869 C7.93855864,5.19534647 7.86092993,5.29881153 7.78492865,5.40518387 C6.59169234,7.07695693 5.93477767,9.28666279 5.93477767,11.6277094 C5.93477767,13.1250455 6.20037527,14.5610721 6.70984422,15.8493404 L3.10962957,15.8493404 C2.56866974,15.0020385 2.14757059,14.0213437 1.88417002,12.9883177 Z" id="Path" stroke="#FDB610" fill="#EA3131"></path>
                        <path d="M23.1153788,12.9883177 C22.8519783,14.0213437 22.4308791,15.0020385 21.8894311,15.8485708 L18.2894605,15.8485708 C18.7989295,14.5603026 19.0645271,13.1242759 19.0645271,11.6269398 C19.0645271,9.28589321 18.4073683,7.07618735 17.2143761,5.4044143 C17.1383748,5.29804196 17.0607461,5.1945769 16.98149,5.09401912 C18.0031131,4.4901594 19.0779534,4.31136152 20.077118,4.59251286 C21.3260126,4.94626075 22.3356741,5.9813389 22.9200865,7.51151018 C23.5355015,9.12299987 23.6050744,11.067972 23.1153788,12.9883177 Z" id="Path" stroke="#FDB610" fill="#EA3131"></path>
                        <path d="M22.3689931,18 L2.78116944,18 C2.34974147,18 2,18.3675204 2,18.8208798 C2,19.2742392 2.34974147,19.6417596 2.78116944,19.6417596 L22.3689931,19.6417596 C22.800421,19.6417596 23.1501625,19.2742392 23.1501625,18.8208798 C23.1501625,18.3675204 22.800421,18 22.3689931,18 Z" id="Path" stroke="#FDB610" fill="url(#linearGradient-2)"></path>
                    </g>
                </g>
            </g>
        </g>
    </g>
</svg>