<?xml version="1.0" encoding="UTF-8"?>
<svg width="22px" height="22px" viewBox="0 0 22 22" version="1.1" xmlns="http://www.w3.org/2000/svg" xmlns:xlink="http://www.w3.org/1999/xlink">
    <!-- Generator: Sketch 52.2 (67145) - http://www.bohemiancoding.com/sketch -->
    <title>wode</title>
    <desc>Created with Sketch.</desc>
    <defs>
        <linearGradient x1="0%" y1="50%" x2="100%" y2="50%" id="linearGradient-1">
            <stop stop-color="#EE5A5A" offset="0%"></stop>
            <stop stop-color="#EA3131" offset="100%"></stop>
        </linearGradient>
    </defs>
    <g id="改版" stroke="none" stroke-width="1" fill="none" fill-rule="evenodd">
        <g id="我的" transform="translate(-28.000000, -211.000000)" fill-rule="nonzero">
            <g id="分组-13" transform="translate(28.000000, 211.000000)">
                <g id="wode">
                    <circle id="椭圆形" fill="url(#linearGradient-1)" cx="11" cy="11" r="11"></circle>
                    <path d="M6.89346606,15.7923457 L15.1037302,15.7852765 L15.2268697,15.7851503 L15.2429996,15.662941 C15.2617818,15.5199591 15.2689942,15.3688 15.2668427,15.2154248 C15.2644746,15.046691 15.2507127,14.8740158 15.2290754,14.7048332 C15.2056789,14.5221154 15.1715246,14.3393275 15.1313757,14.1670732 C15.0884663,13.9830369 15.0385881,13.8133213 14.9875867,13.6708022 L14.9880738,13.6706199 C14.8414296,13.2615772 14.6319436,12.8832937 14.3726606,12.546289 C14.1071123,12.2007143 13.7894666,11.898354 13.4343783,11.6503308 C13.080765,11.4031772 12.6880177,11.2083408 12.2704666,11.0765517 C11.8640522,10.9482832 11.4354456,10.8797938 10.998111,10.8807616 C10.702901,10.8813928 10.40558,10.9154762 10.1142943,10.9783692 C9.81882746,11.0423803 9.53018882,11.1365088 9.25258852,11.2593817 C8.97567353,11.3820539 8.71361647,11.5325257 8.47565957,11.7055375 C8.24192459,11.8755196 8.03122076,12.0675928 7.85249259,12.2768058 C7.76300673,12.3814404 7.67822993,12.4853176 7.59753974,12.5921683 C7.51851396,12.6968029 7.44458967,12.8029663 7.37561803,12.9139968 C7.303697,13.029437 7.23780165,13.1487928 7.17821597,13.2715498 C7.11667329,13.3984998 7.05835118,13.5354926 7.00316845,13.6860205 C6.95657843,13.8132512 6.90910883,13.9790254 6.86730907,14.1642539 C6.82744435,14.3409826 6.79258641,14.5338132 6.76835093,14.7264474 L6.76835093,14.7270786 C6.74637527,14.90204 6.732221,15.0795681 6.72977174,15.2480775 C6.72774197,15.3975114 6.73495442,15.5417556 6.75416959,15.6722403 L6.7718692,15.792514 L6.89346606,15.7923457 Z M8.8146991,7.68641914 C8.80571398,7.75360409 8.80062602,7.82210748 8.80062602,7.88951684 C8.80062602,8.20703934 8.85756788,8.49617304 8.95859638,8.75332726 C9.06643139,9.02791591 9.22505128,9.26729909 9.41835321,9.46579623 C9.52242335,9.57240068 9.63655956,9.66790195 9.75904362,9.75086237 C9.88212898,9.83420536 10.0143754,9.90541579 10.1527111,9.96295079 C10.2910197,10.0203175 10.4335097,10.0639807 10.5771905,10.0927762 C10.7216148,10.1216537 10.8683719,10.1361525 11.0154588,10.1360747 C11.2899651,10.1360747 11.5660411,10.0848795 11.8275028,9.97829532 C12.0747154,9.8774618 12.309763,9.72710218 12.5186806,9.52361175 C12.6882478,9.35841253 12.8284103,9.17075755 12.9364482,8.96931493 L12.9366783,8.96939909 C13.0460424,8.76492683 13.1227542,8.54599369 13.1634579,8.32149218 C13.2039857,8.09847744 13.2095473,7.86888447 13.1778287,7.641171 C13.1470574,7.41989549 13.0810221,7.20055559 12.9780856,6.99080953 C12.8622127,6.75461027 12.7151896,6.55168088 12.546502,6.38258241 C12.3695059,6.20527868 12.1675031,6.0648916 11.9513594,5.96182794 C11.8018751,5.89050637 11.6452141,5.83660597 11.4842548,5.80111707 C11.3206411,5.76502876 11.1537478,5.74734704 10.9864736,5.74837899 C10.8217915,5.74934679 10.6552555,5.76927785 10.4914394,5.80756906 C10.3299778,5.84538339 10.1730223,5.90087058 10.0247543,5.97365193 C9.80973378,6.07917016 9.60911115,6.22187154 9.43360356,6.40095658 C9.26773061,6.57015323 9.12406337,6.77306859 9.01170874,7.00870681 C8.98387381,7.06720961 8.95487514,7.13833588 8.92773032,7.21735884 C8.90134329,7.29396931 8.87731079,7.37456319 8.858258,7.45418927 C8.84019303,7.53011246 8.82484796,7.60864451 8.8146991,7.68641914 Z M12.9278555,10.1411662 C12.8911167,10.1753618 12.8490463,10.2165704 12.7985455,10.2700238 L12.7980449,10.2700238 L12.6547565,10.4214354 L12.8485456,10.4973586 C12.9389787,10.5327184 13.0398042,10.5774756 13.1444863,10.627675 C13.2509471,10.6788978 13.3559572,10.7332996 13.4593851,10.7908124 C13.5611984,10.8475058 13.6585734,10.905714 13.7457994,10.9620007 C13.8305627,11.0166323 13.9090336,11.0720073 13.9764356,11.1252643 L14.1145007,11.2344574 L14.1127957,11.235832 C14.1544123,11.2702197 14.1956954,11.3050389 14.2366388,11.3402842 C14.3132378,11.4062213 14.3879302,11.4745023 14.4606173,11.545037 C14.5335011,11.6157826 14.6044056,11.6886876 14.6732427,11.7636616 C14.7440547,11.8407209 14.8149884,11.9218337 14.888845,12.0097492 L14.8884662,12.0100437 C15.029761,12.1783636 15.1582902,12.357754 15.2729049,12.5466116 L15.2729049,12.5470604 C15.3902048,12.7403043 15.493702,12.9421881 15.5825669,13.1510937 C15.6735704,13.3653878 15.7498454,13.586082 15.8108215,13.8115259 L15.8109974,13.8115259 C15.8709704,14.0326051 15.9187647,14.2666303 15.9520395,14.5131247 C15.9617282,14.5844754 15.9719177,14.7388324 15.9801721,14.9283389 C15.9890333,15.1354831 15.9949969,15.3427496 15.9980611,15.5500731 C16.0004969,15.7193679 16.0007675,15.8794897 15.9981288,16.0026808 C15.995639,16.1207243 15.9898609,16.2104492 15.9801721,16.2518402 L15.9800638,16.2518402 C15.9710787,16.2904961 15.9542857,16.3275249 15.9316606,16.3610332 L15.9316606,16.3616083 C15.9090669,16.3946143 15.8813527,16.4235114 15.8496442,16.4471253 L15.849103,16.4471253 C15.8126965,16.4739917 15.77242,16.4947211 15.7297659,16.5085456 L15.7292788,16.5085456 C15.6886833,16.5215618 15.6438525,16.5293743 15.5968835,16.5298372 C14.6217541,16.5429796 13.5926734,16.538337 12.5776793,16.5338907 L12.5395196,16.5336523 L12.3954058,16.532965 C11.9318195,16.5310294 11.4998976,16.5288553 11.1388148,16.5284065 L11.1388148,16.5287992 L10.9981381,16.5287992 L6.44251845,16.5294304 L6.44251845,16.5300616 C6.38791759,16.5300616 6.33791755,16.5246896 6.29337082,16.5142542 C6.24337078,16.5025985 6.19872933,16.4835371 6.16062375,16.4578553 L6.1605155,16.4580376 C6.12604738,16.434819 6.09636721,16.4047412 6.07319472,16.3695471 C6.05180093,16.3374133 6.03488616,16.2998515 6.02346531,16.2583483 L6.01801199,16.2386697 L6.01801199,16.2315304 C6.01061009,16.1867732 6.00569805,16.1133606 6.0031676,16.0214617 C5.99983877,15.9044421 5.99933809,15.7486684 6.00071834,15.5820526 C6.00247748,15.3690665 6.00824203,15.145659 6.01548155,14.9594487 C6.02311349,14.7661272 6.03285639,14.6075483 6.04243691,14.534767 L6.05866156,14.4122772 L6.06031244,14.4122772 C6.0907295,14.2174142 6.13162775,14.0244651 6.18281592,13.8343324 C6.24582004,13.600251 6.32247775,13.3779657 6.4100827,13.1693838 L6.41069163,13.1693838 C6.50172012,12.9531015 6.60525201,12.7494849 6.71825617,12.560834 C6.83615884,12.3641883 6.96411565,12.1833641 7.09893308,12.0206194 C7.23468422,11.8567807 7.36596985,11.7114004 7.4980268,11.5796674 C7.63058442,11.4472892 7.76215422,11.3303397 7.89823012,11.223475 C8.03449546,11.1162596 8.17894754,11.0163097 8.33649842,10.9186601 C8.49210072,10.8221326 8.65835255,10.7292098 8.84072078,10.6345618 L8.87139739,10.6186422 L8.87323772,10.6186422 C8.891397,10.6098158 8.90970383,10.6013194 8.92814981,10.5931568 C8.96162751,10.5782891 8.98363023,10.569102 9.0041174,10.5607986 L9.00422565,10.560995 L9.00851524,10.5592557 C9.05851528,10.5385252 9.10813643,10.518019 9.1599362,10.4919305 L9.31561969,10.4133845 L9.20553841,10.2779065 C9.18587598,10.2538179 9.1647697,10.2310366 9.14234485,10.2096977 L9.14176298,10.2096977 C9.12145173,10.1901734 9.09115401,10.1634957 9.05794694,10.1341812 L9.05824464,10.1338867 C9.00187112,10.0845429 8.93390083,10.0244972 8.85985476,9.94829353 C8.7728589,9.85900388 8.69301921,9.76252248 8.62112654,9.65980503 C8.43338619,9.39192085 8.29597065,9.11388178 8.20444147,8.83397725 C8.10785141,8.53829337 8.06191091,8.2386401 8.06142376,7.94458325 C8.06116538,7.70823589 8.08982895,7.47280892 8.1467283,7.24393827 C8.20444147,7.01190476 8.29028729,6.78790819 8.40076099,6.57785355 C8.51044986,6.36907529 8.64524023,6.17300466 8.80114023,5.99542041 C8.95730855,5.8176607 9.13332192,5.65978676 9.32547085,5.52512581 C9.56933523,5.35410319 9.83669693,5.22219488 10.1185297,5.13385416 C10.3924136,5.04788829 10.6875965,5.00060636 10.9980027,5.00000324 C11.3220355,4.99954038 11.6267854,5.04865973 11.9077058,5.13865108 C12.2050809,5.2338882 12.4763125,5.37485034 12.7161774,5.55072341 C12.904635,5.68874008 13.0748516,5.84954913 13.2245811,6.02744196 C13.3759245,6.20737821 13.5062782,6.40517819 13.6129441,6.61674789 L13.6129441,6.61732296 C13.7183434,6.82698486 13.7998996,7.0486531 13.8546899,7.27615618 C13.9090472,7.50116262 13.9376264,7.73326626 13.9380053,7.96646394 C13.9385059,8.26286315 13.8936886,8.56150654 13.7992365,8.85106102 C13.7089658,9.1273328 13.5734989,9.39621283 13.3890197,9.64793896 C13.2963944,9.77406151 13.2297097,9.85506215 13.1743104,9.91457482 C13.1173686,9.97572855 13.0728083,10.0141179 13.0247298,10.0554248 C12.9957988,10.0801107 12.9651357,10.1064797 12.9278555,10.1411662 Z" id="形状" fill="#FFFFFF"></path>
                </g>
            </g>
        </g>
    </g>
</svg>