<?xml version="1.0" encoding="UTF-8"?>
<svg width="22px" height="23px" viewBox="0 0 22 23" version="1.1" xmlns="http://www.w3.org/2000/svg" xmlns:xlink="http://www.w3.org/1999/xlink">
    <!-- Generator: Sketch 52.2 (67145) - http://www.bohemiancoding.com/sketch -->
    <title>Group 9</title>
    <desc>Created with Sketch.</desc>
    <defs>
        <linearGradient x1="0%" y1="50%" x2="99.0561777%" y2="50%" id="linearGradient-1">
            <stop stop-color="#EE5A5A" offset="0%"></stop>
            <stop stop-color="#EA3131" offset="100%"></stop>
        </linearGradient>
    </defs>
    <g id="改版" stroke="none" stroke-width="1" fill="none" fill-rule="evenodd">
        <g id="我的" transform="translate(-28.000000, -353.000000)" fill-rule="nonzero">
            <g id="分组-23" transform="translate(28.000000, 353.000000)">
                <g id="分组-22">
                    <g id="分组-18" transform="translate(0.000000, 0.375000)">
                        <g id="Group-9">
                            <g id="分组-17" fill="url(#linearGradient-1)">
                                <g id="分组-16">
                                    <g id="设置-(1)">
                                        <circle id="椭圆形-copy-5" cx="11" cy="11" r="11"></circle>
                                    </g>
                                </g>
                            </g>
                            <g id="shuben" transform="translate(6.000000, 7.000000)" fill="#FFFFFF" stroke="#FFFFFF" stroke-width="0.3">
                                <path d="M10.7607311,0.283880227 C10.6889542,0.217295478 10.3915263,0 9.46002517,0 C9.07177802,0 8.62462929,0.0387824373 8.12178832,0.114969168 C6.26346797,0.397171673 5.67943593,0.935452079 5.54640388,1.08893404 C5.41353546,0.935601875 4.82840846,0.397171673 2.96984896,0.114969168 C2.46702059,0.0387824373 2.0150389,0 1.62521853,0 C0.667614413,0 0.342472528,0.234522127 0.292834092,0.27928146 C0.130074364,0.421918133 0,0.702727519 0,0.961996092 L0,8.21947916 C0,8.50641524 0.187780315,8.72287186 0.414551493,8.72287186 C0.454788336,8.72287186 0.504263169,8.71592128 0.544965683,8.70257437 C0.549345551,8.70104644 0.996091537,8.55993769 1.84482838,8.55993769 C2.15605035,8.55993769 2.48839131,8.57884206 2.82840961,8.61609657 C4.61945881,8.81239051 5.20970824,9.37652588 5.21368536,9.38042059 C5.30899772,9.47898699 5.43554806,9.53333333 5.5691087,9.53333333 C5.68415561,9.53333333 5.79632037,9.49134525 5.88210527,9.41697105 C5.88754233,9.41252208 6.44762357,8.9645992 8.29041304,8.6137148 C8.58183753,8.55824498 8.88699313,8.53002323 9.19727117,8.53002323 C9.96880664,8.53002323 10.5264588,8.70491119 10.5331167,8.70699336 C10.5721831,8.71936659 10.6112117,8.7254783 10.6491201,8.7254783 C10.7691888,8.7254783 10.8565092,8.66500527 10.9286259,8.55517414 C10.9874897,8.4656405 11,8.34956283 11,8.21944918 L11,0.962026057 C10.9999874,0.73680632 10.9372094,0.438470693 10.7607311,0.283880227 Z M2.85674027,8.04920496 C2.50218535,8.01027273 2.14921625,7.99054447 1.82339474,7.99054447 C1.10897368,7.99054447 0.717378719,8.08452708 0.478248281,8.12984066 L0.478248281,0.962026057 C0.478248281,0.881255535 0.540711672,0.769342219 0.569860412,0.74348727 C0.572201373,0.741824524 0.823602971,0.569438176 1.61739016,0.569438176 C1.98701029,0.569438176 2.42349886,0.606692687 2.9063032,0.679958373 C4.75831807,0.961052375 5.20905377,1.44765282 5.20953204,1.44750302 C5.24954233,1.50376676 5.3001373,1.53525409 5.35288445,1.53525409 L5.26086957,1.53525409 L5.26086957,8.77112147 C5.02172655,8.55307701 4.21070939,8.19753391 2.85674027,8.04920496 Z M10.5580744,8.1287172 C10.353492,8.07422106 9.84891419,7.960645 9.19732151,7.960645 C8.861746,7.960645 8.51357208,7.99123354 8.19726545,8.05155677 C6.75063959,8.32695848 6.10409383,8.65986725 5.73910527,8.83607342 L5.73910527,1.53523911 L5.74534783,1.53523911 C5.79677346,1.53523911 5.84356752,1.50677769 5.88082152,1.454169 C5.88513845,1.44888117 6.33261443,0.93922696 8.18690733,0.657713534 C8.66971167,0.584447834 9.1167849,0.558308269 9.48489475,0.558308269 C10.2660709,0.558308269 10.521714,0.73402011 10.521714,0.73402011 L10.521714,0.735832653 C10.521714,0.759890048 10.5743227,0.865676658 10.5743227,0.9610374 L10.5580744,8.1287172 Z" id="形状"></path>
                            </g>
                        </g>
                    </g>
                </g>
            </g>
        </g>
    </g>
</svg>