<?xml version="1.0" encoding="UTF-8"?>
<svg width="22px" height="23px" viewBox="0 0 22 23" version="1.1" xmlns="http://www.w3.org/2000/svg" xmlns:xlink="http://www.w3.org/1999/xlink">
    <!-- Generator: Sketch 52.2 (67145) - http://www.bohemiancoding.com/sketch -->
    <title>Group 6</title>
    <desc>Created with Sketch.</desc>
    <defs>
        <linearGradient x1="0%" y1="50%" x2="100%" y2="50%" id="linearGradient-1">
            <stop stop-color="#EE5A5A" offset="0%"></stop>
            <stop stop-color="#EA3131" offset="100%"></stop>
        </linearGradient>
    </defs>
    <g id="改版" stroke="none" stroke-width="1" fill="none" fill-rule="evenodd">
        <g id="我的" transform="translate(-28.000000, -256.000000)">
            <g id="分组-24" transform="translate(28.000000, 256.000000)">
                <g id="分组-12" transform="translate(0.000000, 0.375000)">
                    <g id="分组-11">
                        <g id="Group-6">
                            <circle id="椭圆形" fill="url(#linearGradient-1)" fill-rule="nonzero" cx="11" cy="11" r="11"></circle>
                            <g id="tubiao15-2" transform="translate(5.000000, 6.625000)" fill="#FFFFFF">
                                <g id="tubiao15" transform="translate(0.000000, 0.375000)">
                                    <path d="M10.3995287,0.757583827 C10.8096818,0.757583827 11.1428405,1.05277987 11.1428405,1.41527901 L11.1428405,6.04655834 C11.1428405,6.40831855 10.8096955,6.70202463 10.3995287,6.70202463 L8.56973172,6.70202463 C8.09595539,6.70202463 7.71259963,7.04087804 7.71259963,7.45886953 C7.71259963,7.45886953 7.71259963,7.52915257 7.71259963,7.63937412 C7.17855664,7.25614862 6.64451363,6.87219632 6.64451363,6.87219632 C6.49216869,6.76195055 6.30132651,6.70202463 6.1037713,6.70202463 L1.5995945,6.70202463 C1.19027707,6.70202463 0.857132117,6.40831856 0.857132117,6.04655834 L0.857132103,1.41527901 C0.857132103,1.05276776 1.19027705,0.757583827 1.59959448,0.757583827 L10.3995287,0.757583827 Z M10.3995287,0 L1.59960818,0 C0.716514431,0 0,0.634025233 0,1.4152669 L1.3387418e-08,6.04655834 C1.3387418e-08,6.82632215 0.716514431,7.45960845 1.59960819,7.45960845 L6.10378499,7.45960845 C6.10378499,7.45960845 7.967065,8.80015874 8.21985895,8.97476401 C8.33872088,9.0561431 8.42409981,9.09090909 8.48102366,9.09090909 C8.54464686,9.09090909 8.57310193,9.04651279 8.57143053,8.97476401 C8.56890972,8.84010936 8.56975912,7.45960845 8.56975912,7.45960845 L10.3995561,7.45960845 C11.2843213,7.45960845 12,6.82632215 12,6.04655834 L12,1.41527901 C11.9999726,0.634025221 11.2842939,0 10.3995287,0 Z" id="形状" fill-rule="nonzero"></path>
                                    <path d="M9.63636364,3.40909091 C9.63636364,3.7863993 9.33008017,4.09090909 8.95454545,4.09090909 C8.57813892,4.09090909 8.27272727,3.78639929 8.27272727,3.40909091 C8.27272727,3.03176798 8.57813893,2.72727273 8.95454545,2.72727273 C9.33008017,2.72727271 9.63636364,3.03178251 9.63636364,3.40909091 Z" id="路径"></path>
                                    <path d="M6.90909091,3.40909091 C6.90909091,3.7863993 6.60280418,4.09090909 6.22727999,4.09090909 C5.85040447,4.09090909 5.54545455,3.78639929 5.54545455,3.40909091 C5.54545455,3.03176798 5.85040447,2.72727273 6.22727999,2.72727273 C6.60278965,2.72727271 6.90909091,3.03178251 6.90909091,3.40909091 Z" id="路径"></path>
                                    <path d="M4.18181818,3.40909091 C4.18181818,3.7863993 3.87553145,4.09090909 3.49999274,4.09090909 C3.12313175,4.09090909 2.81818182,3.78639929 2.81818182,3.40909091 C2.81818182,3.03176798 3.12313175,2.72727273 3.49999274,2.72727273 C3.87553145,2.72727271 4.18181818,3.03178251 4.18181818,3.40909091 Z" id="路径"></path>
                                </g>
                            </g>
                        </g>
                    </g>
                </g>
            </g>
        </g>
    </g>
</svg>