<?xml version="1.0" encoding="UTF-8"?>
<svg width="22px" height="22px" viewBox="0 0 22 22" version="1.1" xmlns="http://www.w3.org/2000/svg" xmlns:xlink="http://www.w3.org/1999/xlink">
    <!-- Generator: Sketch 52.2 (67145) - http://www.bohemiancoding.com/sketch -->
    <title>Group 61</title>
    <desc>Created with Sketch.</desc>
    <defs>
        <linearGradient x1="0%" y1="50%" x2="99.0561777%" y2="50%" id="linearGradient-1">
            <stop stop-color="#EE5A5A" offset="0%"></stop>
            <stop stop-color="#EA3131" offset="100%"></stop>
        </linearGradient>
    </defs>
    <g id="改版" stroke="none" stroke-width="1" fill="none" fill-rule="evenodd">
        <g id="我的" transform="translate(-28.000000, -450.000000)" fill-rule="nonzero">
            <g id="Group-61" transform="translate(28.000000, 450.000000)">
                <g id="分组-17" fill="url(#linearGradient-1)">
                    <g id="分组-16">
                        <g id="设置-(1)">
                            <circle id="椭圆形-copy-5" cx="11" cy="11" r="11"></circle>
                        </g>
                    </g>
                </g>
                <g id="客服-copy" transform="translate(5.000000, 5.000000)" fill="#FFFFFF">
                    <path d="M13,7.04463959 C13,5.99658495 12.3045932,5.12452738 11.3861867,4.93267472 C11.2746868,2.19441395 9.13124929,0 6.50366776,0 C3.88342174,0 1.74438551,2.18331504 1.62261596,4.91047689 C0.699808148,5.09915843 0,5.97280156 0,7.02402732 C0,8.21161117 0.893465749,9.17721673 1.99232592,9.17721673 C2.20358876,9.17721673 2.37523981,8.99170631 2.37523981,8.76338578 C2.37523981,8.74911575 2.3693714,8.73643127 2.3679043,8.72216124 C2.3693714,8.70789121 2.37523981,8.69520673 2.37523981,8.6809367 L2.37523981,5.15148189 C2.37523981,2.76680083 4.22672385,0.826076351 6.50220065,0.826076351 C8.77767746,0.826076351 10.6291615,2.76680083 10.6291615,5.15148189 L10.6291615,5.26722771 C10.6276944,5.27991218 10.621826,5.2910111 10.621826,5.30369557 C10.621826,5.31638005 10.6276944,5.32747896 10.6291615,5.34016343 L10.6291615,8.40346384 C10.6291615,10.0778144 9.42026859,11.485791 7.76244216,11.9757287 C7.79765264,11.8472985 7.82259339,11.7125259 7.82259339,11.5714111 C7.82259339,10.7833882 7.22988376,10.1428223 6.50073355,10.1428223 C5.77158334,10.1428223 5.17887372,10.7833882 5.17887372,11.5714111 C5.17887372,12.3594341 5.77158334,13 6.50073355,13 C8.92145356,13 10.9328518,11.3367484 11.320167,9.16453226 C12.2708498,8.99804854 13,8.11489206 13,7.04463959 Z M0.765827785,7.02402732 C0.765827785,6.43737041 1.12233382,5.9442615 1.61234624,5.76826442 L1.61234624,8.27820466 C1.12233382,8.1053787 0.765827785,7.61068423 0.765827785,7.02402732 Z M5.94763571,11.5714111 C5.94763571,11.2400293 6.19704322,10.9688986 6.50513486,10.9688986 C6.8117594,10.9688986 7.06263401,11.2384437 7.06263401,11.5714111 C7.06263401,11.9043786 6.8132265,12.1739236 6.50513486,12.1739236 C6.19704322,12.1739236 5.94763571,11.902793 5.94763571,11.5714111 Z M11.3964564,8.29723137 L11.3964564,5.79204781 C11.8820675,5.96963044 12.2356393,6.4611538 12.2356393,7.04463959 C12.2341722,7.62812538 11.8820675,8.11964874 11.3964564,8.29723137 Z" id="形状"></path>
                </g>
            </g>
        </g>
    </g>
</svg>