<?xml version="1.0" encoding="UTF-8"?>
<svg width="38px" height="29px" viewBox="0 0 38 29" version="1.1" xmlns="http://www.w3.org/2000/svg" xmlns:xlink="http://www.w3.org/1999/xlink">
    <!-- Generator: Sketch 52.2 (67145) - http://www.bohemiancoding.com/sketch -->
    <title>fenxiang-2</title>
    <desc>Created with Sketch.</desc>
    <g id="改版" stroke="none" stroke-width="1" fill="none" fill-rule="evenodd">
        <g id="我的" transform="translate(-286.000000, -66.000000)" fill="#FFFFFF" fill-rule="nonzero">
            <g id="fenxiang-2" transform="translate(286.000000, 66.000000)">
                <path d="M36.6211921,13.3845083 C35.872076,13.3845083 35.2640977,13.8835624 35.2640977,14.4984683 L35.2640977,25.6380686 C35.2640977,26.2529746 34.6561194,26.7520287 33.9070033,26.7520287 L4.05092675,26.7520287 C3.30181065,26.7520287 2.69383236,26.2529746 2.69383236,25.6380686 L2.69383236,6.70074808 C2.69383236,6.08584214 3.30181065,5.58678805 4.05092675,5.58678805 L13.5505875,5.58678805 C13.5505875,5.58678805 13.5505875,5.58678805 13.5505875,5.58678805 C14.2997036,5.58678805 14.9076819,5.08773396 14.9076819,4.47282802 C14.9076819,3.85792208 14.2997036,3.35886799 13.5505875,3.35886799 C13.5071605,3.35886799 13.4705189,3.37557739 13.428449,3.37891927 L4.06721189,3.37891927 C1.82122067,3.37891927 0,4.87608155 0,6.72302728 L0,25.655892 C0,27.5028377 1.82122067,29 4.06721189,29 L33.9327881,29 C36.1787793,29 38,27.5028377 38,25.655892 L38,14.4984683 L37.9782865,14.4984683 C37.9782865,13.8835624 37.3703082,13.3845083 36.6211921,13.3845083 Z M11.6526817,18.2848185 C11.5865297,18.4285193 11.5435308,18.5844737 11.5435308,18.7526817 C11.5435308,19.3675876 12.0374661,19.8666417 12.6460648,19.8666417 C13.1785887,19.8666417 13.6019618,19.4778696 13.7056,18.9699039 L13.7276507,18.9699039 C15.0065901,12.3663488 20.4112117,7.26441186 27.1190285,6.49800736 L24.7838615,8.8573747 C24.3527707,9.29293308 24.3527707,9.99806978 24.7838615,10.4325142 C25.2149523,10.8680726 25.9128563,10.8680726 26.3428445,10.4325142 L30.5644472,6.16716123 C30.995538,5.73160285 30.995538,5.02646615 30.5644472,4.59202174 L26.3428445,0.326668779 C25.9117538,-0.108889593 25.2138497,-0.108889593 24.7838615,0.326668779 C24.3527707,0.762227152 24.3527707,1.46736385 24.7838615,1.90180826 L27.1102082,4.25226393 C19.4244438,5.02535219 13.2215876,10.7878674 11.6526817,18.2848185 Z" id="Shape"></path>
            </g>
        </g>
    </g>
</svg>