<?xml version="1.0" encoding="UTF-8"?>
<svg width="19px" height="19px" viewBox="0 0 19 19" version="1.1" xmlns="http://www.w3.org/2000/svg" xmlns:xlink="http://www.w3.org/1999/xlink">
    <!-- Generator: Sketch 52.2 (67145) - http://www.bohemiancoding.com/sketch -->
    <title>Group 38</title>
    <desc>Created with Sketch.</desc>
    <g id="改版" stroke="none" stroke-width="1" fill="none" fill-rule="evenodd">
        <g id="Group-38" transform="translate(1.000000, 1.000000)" fill="#EA3131" fill-rule="nonzero" stroke="#EA3131">
            <g id="交易-2-copy-4" stroke-width="0.1">
                <path d="M8.49653739,17.0499852 C4.43038861,17.0472858 0.928449471,14.1821543 0.121099235,10.1975628 C-0.686253388,6.21295941 1.4243008,2.2109725 5.16884771,0.626173173 C9.51925972,-1.21141312 14.5358522,0.825095232 16.3737218,5.17484643 C18.2115931,9.52460158 16.1747695,14.5404352 11.8243858,16.3780095 C10.7716121,16.8235641 9.63973755,17.0521178 8.49653739,17.0499852 Z M8.54660062,0.784203447 L8.49664011,0.834203431 C4.84891171,0.837084482 1.70760395,3.40763828 0.983530219,6.98222814 C0.259456876,10.5568161 2.1528565,14.1468914 5.51192753,15.5686277 C9.41413355,17.2126998 13.9106695,15.3847292 15.5582671,11.484507 C17.205863,7.58428878 15.3813922,3.08691639 11.4819636,1.43629923 C10.5375534,1.0366957 9.52219473,0.831779321 8.54660062,0.78382325 L8.54660062,0.784203447 Z" id="Shape"></path>
            </g>
            <g id="分组-8-copy" transform="translate(4.000000, 3.000000)" stroke-width="0.2">
                <g id="分组-6">
                    <g id="分组">
                        <g id="yaoqinghaoyou" transform="translate(0.250000, 0.400000)">
                            <path d="M9.05597892,8.18124883 L8.17390628,8.18124883 L8.17390628,9.05780754 C8.17390628,9.23312302 8.0562847,9.34999067 7.8798852,9.34999067 C7.70346691,9.34999067 7.58586411,9.23310436 7.58586411,9.05780754 L7.58586411,8.18124883 L6.70379148,8.18124883 C6.52737319,8.18124883 6.40977039,8.06436252 6.40977039,7.88906571 C6.40977039,7.71375023 6.52739197,7.59688258 6.70379148,7.59688258 L7.58586411,7.59688258 L7.58586411,6.72032387 C7.58586411,6.5450084 7.70348569,6.42814074 7.8798852,6.42814074 C8.05630348,6.42814074 8.17390628,6.54502705 8.17390628,6.72032387 L8.17390628,7.59688258 L9.05597892,7.59688258 C9.2323972,7.59688258 9.35,7.71376889 9.35,7.88906571 C9.35,8.06438118 9.23237842,8.18124883 9.05597892,8.18124883 Z M5.82170006,5.25937092 L5.3512607,5.25937092 C4.93962742,5.60999254 4.35157587,5.8437465 3.76352432,5.8437465 C3.17547276,5.8437465 2.6462273,5.60999254 2.17578793,5.25937092 L1.76415466,5.25937092 C1.11729701,5.25937092 0.588051554,5.78530801 0.588051554,6.42812208 L0.588051554,7.59687325 C0.588051554,8.23968733 1.11729701,8.76562442 1.76415466,8.76562442 L5.82170945,8.76562442 L5.82170945,9.35 L1.76415466,9.35 C0.764469837,9.35 0,8.59030894 0,7.59687325 L0,6.42812208 C0,5.49312488 0.764469837,4.67499534 1.70535796,4.67499534 C1.41133687,4.20749673 1.1761125,3.56468266 1.1761125,2.92186859 C1.1761125,1.28561882 2.35221561,0 3.82234919,0 C5.29247338,0 6.46858587,1.28562815 6.46858587,2.92186859 C6.46858587,3.56468266 6.2333615,4.20749673 5.93934041,4.67499534 C6.64500416,4.73343383 7.29185242,5.20093243 7.52707679,5.8437465 L6.88021915,5.8437465 C6.64499477,5.49312488 6.29216759,5.25937092 5.82172823,5.25937092 L5.82170006,5.25937092 Z M3.82233041,0.584375583 C2.70503339,0.584375583 1.76415466,1.63624977 1.76415466,2.92187792 C1.76415466,4.20750606 2.70503339,5.25938025 3.82233041,5.25938025 C4.93962742,5.25938025 5.88050616,4.20750606 5.88050616,2.92187792 C5.88050616,1.63624977 4.93962742,0.584375583 3.82233041,0.584375583 Z" id="形状"></path>
                        </g>
                    </g>
                </g>
            </g>
        </g>
    </g>
</svg>