<?xml version="1.0" encoding="UTF-8"?>
<svg width="33px" height="33px" viewBox="0 0 33 33" version="1.1" xmlns="http://www.w3.org/2000/svg" xmlns:xlink="http://www.w3.org/1999/xlink">
    <!-- Generator: Sketch 52.2 (67145) - http://www.bohemiancoding.com/sketch -->
    <title>高手排行榜</title>
    <desc>Created with Sketch.</desc>
    <g id="改版" stroke="none" stroke-width="1" fill="none" fill-rule="evenodd">
        <g id="高手排行榜">
            <g id="分组-24-copy" fill="#E9EFFD">
                <circle id="椭圆形" cx="16.5" cy="16.5" r="16.5"></circle>
            </g>
            <g id="paihangbang" transform="translate(8.000000, 10.000000)" fill-rule="nonzero">
                <path d="M16.2,1.75862069 L15.6,1.75862069 L15.6,1.17241378 C15.6,0.524907527 15.0627417,6.10144119e-17 14.4,0 L3.6,0 C2.9372583,-6.10144119e-17 2.4,0.524907527 2.39999999,1.17241378 L2.39999999,1.75862069 L1.8,1.75862069 C0.8073,1.75862069 0,2.54736207 0,3.51724138 L0,4.68965516 C0,5.65953447 0.8073,6.44827585 1.8,6.44827585 L2.39999999,6.44827585 C2.39999999,9.79727585 5.04869999,12.5697414 8.40000001,12.8684138 L8.40000001,14.6551724 L6.7158,14.6551724 C6.46563698,14.655142 6.24170722,14.8067591 6.15389999,15.0356207 L5.70389999,16.2080345 C5.6348278,16.3880649 5.66050419,16.5897434 5.77261371,16.7477553 C5.88472324,16.9057672 6.06901312,17.0000239 6.2658,17 L11.7342,17 C11.9309869,17.0000239 12.1152768,16.9057672 12.2273863,16.7477553 C12.3394958,16.5897434 12.3651722,16.3880649 12.2961,16.2080345 L11.8461,15.0356207 C11.7582928,14.8067591 11.534363,14.655142 11.2842,14.6551724 L9.59999999,14.6551724 L9.59999999,12.8684138 C12.9513,12.5697414 15.6,9.79727587 15.6,6.44827585 L16.2,6.44827585 C17.1927,6.44827585 18,5.65953447 18,4.68965516 L18,3.51724138 C18,2.54765518 17.1927,1.75862069 16.2,1.75862069 Z M1.8,5.27586207 C1.46910001,5.27586207 1.20000001,5.01294828 1.20000001,4.68965516 L1.20000001,3.51724138 C1.20000001,3.19394828 1.46910001,2.93103449 1.8,2.93103447 L2.39999999,2.93103447 L2.39999999,5.27586207 L1.8,5.27586207 Z M16.8,4.68965516 C16.8,5.01294826 16.5309,5.27586205 16.2,5.27586207 L15.6,5.27586207 L15.6,2.93103447 L16.2,2.93103447 C16.5309,2.93103447 16.8,3.19394827 16.8,3.51724138 L16.8,4.68965516 Z" id="形状" fill="#4371D3"></path>
                <path d="M12.2899277,5.09789309 L10.9180606,6.46811883 L11.2274531,8.34989552 C11.266628,8.46505936 11.2468018,8.5915984 11.1741593,8.69003889 C11.1015168,8.78847938 10.9848999,8.84683946 10.860687,8.84691377 L10.8555871,8.84691377 C10.7931168,8.84657476 10.7315792,8.83207703 10.6758164,8.80456133 L8.99668167,7.89190795 L7.31839693,8.79376562 C7.28911511,8.96811694 7.14007655,9.09936512 6.95955072,9.1097772 C6.77902489,9.12018928 6.61521589,9.00698502 6.56514114,8.8372107 C6.51506639,8.66743639 6.59209686,8.48642523 6.75061055,8.4013828 L7.07785271,6.4610601 L5.70938554,5.08543649 C5.60790504,4.98442622 5.57337593,4.83615135 5.62013768,4.70218851 C5.66536264,4.56749923 5.78469355,4.46940477 5.92825528,4.44890435 L7.80841018,4.17236788 L8.65498987,2.41972458 C8.71913551,2.28719502 8.85588408,2.20281126 9.00593369,2.20316687 C9.1559833,2.20352248 9.29231125,2.28855342 9.35579805,2.42138547 L10.1955779,4.17901141 L12.0727579,4.46136095 C12.2159794,4.48212193 12.3337016,4.57969862 12.3800255,4.71547554 C12.4260151,4.84935766 12.3912,4.99712913 12.2899277,5.09789309 Z" id="路径" stroke="#E9EFFD" fill="#EA3131"></path>
            </g>
        </g>
    </g>
</svg>