<?xml version="1.0" encoding="UTF-8"?>
<svg preserveAspectRatio="none" viewBox="0 0 25 25" version="1.1" xmlns="http://www.w3.org/2000/svg" xmlns:xlink="http://www.w3.org/1999/xlink">
    <g id="改版" stroke="none" stroke-width="1" fill="none" fill-rule="evenodd">
        <g id="新增首页定稿-copy-2" transform="translate(-15.000000, -47.000000)">
            <g id="分组-6" transform="translate(15.000000, 47.000000)">
                <circle id="椭圆形" fill="#333333" cx="12.5" cy="12.5" r="12.5"></circle>
                <g id="wode-2-copy" transform="translate(5.681818, 4.545455)" fill="#FCFCFC" fill-rule="nonzero">
                    <path d="M13.1723148,11.0630111 C12.8781139,10.4674867 12.462593,9.93208731 11.9318182,9.46826542 C10.8672355,8.53489544 9.44475898,7.99949609 8.02834843,7.99949609 L5.60801521,7.99949609 C4.19160466,7.99949609 2.76912811,8.53489544 1.70454545,9.46826542 C1.17377062,9.93208731 0.758249757,10.4703498 0.464048852,11.0630111 C0.154682951,11.6871664 0,12.345679 0,13.0185071 C0,13.8974782 0.755216758,14.6103896 1.68634746,14.6103896 L11.9500162,14.6103896 C12.8811469,14.6103896 13.6363636,13.8974782 13.6363636,13.0185071 C13.6363636,12.345679 13.4816807,11.6871664 13.1723148,11.0630111 Z" id="路径"></path>
                    <path d="M11.9500162,13.7113768 L1.68634746,13.7113768 C1.27992559,13.7113768 0.952361695,13.3992991 0.952361695,13.0185071 C0.952361695,11.9333929 1.45583953,10.8998145 2.37483824,10.1067363 C3.26350696,9.33942601 4.44031058,8.8985089 5.60801521,8.8985089 L8.02834843,8.8985089 C9.19605306,8.8985089 10.3758897,9.33942601 11.2615254,10.1067363 C12.1774911,10.8998145 12.6840019,11.9333929 12.6840019,13.0185071 C12.6840019,13.4021622 12.356438,13.7113768 11.9500162,13.7113768 Z" id="路径"></path>
                    <path d="M6.81818182,7.75613276 C9.08383209,7.75613276 10.9248625,6.01536911 10.9248625,3.87949793 C10.9248625,1.74362674 9.08383209,0 6.81818182,0 C4.55253154,0 2.71150113,1.74076365 2.71150113,3.87663483 C2.71150113,6.01250601 4.55253154,7.75613276 6.81818182,7.75613276 Z" id="路径"></path>
                    <path d="M6.81818182,0.899012804 C8.55912326,0.899012804 9.97250081,2.23607962 9.97250081,3.87663483 C9.97250081,5.51719004 8.55609026,6.85425685 6.81818182,6.85425685 C5.07724038,6.85425685 3.66386283,5.51719004 3.66386283,3.87663483 C3.66386283,2.23607962 5.07724038,0.899012804 6.81818182,0.899012804 Z" id="路径"></path>
                </g>
            </g>
        </g>
    </g>
</svg>