<?xml version="1.0" encoding="UTF-8"?>
<svg width="19px" height="19px" viewBox="0 0 19 19" version="1.1" xmlns="http://www.w3.org/2000/svg" xmlns:xlink="http://www.w3.org/1999/xlink">
    <!-- Generator: Sketch 52.2 (67145) - http://www.bohemiancoding.com/sketch -->
    <title>交易-2</title>
    <desc>Created with Sketch.</desc>
    <g id="改版" stroke="none" stroke-width="1" fill="none" fill-rule="evenodd">
        <g id="交易-2" transform="translate(1.000000, 1.000000)" fill="#EA3131" fill-rule="nonzero" stroke="#EA3131" stroke-width="0.1">
            <path d="M8.49653739,17.0499852 C4.43038861,17.0472858 0.928449471,14.1821543 0.121099235,10.1975628 C-0.686253388,6.21295941 1.4243008,2.2109725 5.16884771,0.626173173 C9.51925972,-1.21141312 14.5358522,0.825095232 16.3737218,5.17484643 C18.2115931,9.52460158 16.1747695,14.5404352 11.8243858,16.3780095 C10.7716121,16.8235641 9.63973755,17.0521178 8.49653739,17.0499852 Z M8.54660062,0.784203447 L8.49664011,0.834203431 C4.84891171,0.837084482 1.70760395,3.40763828 0.983530219,6.98222814 C0.259456876,10.5568161 2.1528565,14.1468914 5.51192753,15.5686277 C9.41413355,17.2126998 13.9106695,15.3847292 15.5582671,11.484507 C17.205863,7.58428878 15.3813922,3.08691639 11.4819636,1.43629923 C10.5375534,1.0366957 9.52219473,0.831779321 8.54660062,0.78382325 L8.54660062,0.784203447 Z" id="Shape"></path>
            <path d="M12.6556795,7.42703552 L4.29043963,7.427035 C4.12881746,7.42629556 3.98681847,7.31313004 3.93642397,7.14739128 C3.88649398,6.98318022 3.93692177,6.80203838 4.06321495,6.69584416 L7.2711481,4.02258335 C7.43719674,3.8973559 7.66414071,3.93819196 7.7845629,4.11376938 C7.90302181,4.28648432 7.87776923,4.5302761 7.72449125,4.67133416 L5.25729505,6.61208103 L12.6540687,6.61217703 C12.7940374,6.60349088 12.9261049,6.68046899 12.9973008,6.8107879 C13.0675664,6.93940383 13.0675664,7.09971272 12.9973008,7.22832865 C12.9263775,7.35814862 12.7950478,7.43503545 12.655676,7.42703552 Z M8.5036325,13.05 L8.50353047,13.0499999 C8.34175717,13.0496339 8.19944157,12.936592 8.14884169,12.7707576 C8.09870972,12.6064568 8.14910181,12.4250992 8.275507,12.3188085 L10.742705,10.3778717 L3.3459313,10.3777757 C3.20596261,10.3864618 3.07389506,10.3094837 3.00269915,10.1791648 C2.93243362,10.0505489 2.93243362,9.89023999 3.00269915,9.76162407 C3.07389506,9.63130516 3.20596261,9.55432704 3.34283437,9.56291719 L11.7095604,9.56291772 C11.8711826,9.56365716 12.0131815,9.67682268 12.063576,9.84256143 C12.113506,10.0067725 12.0630782,10.1879143 11.9367864,10.2941074 L8.73083106,12.9659852 C8.66579326,13.0204024 8.58594337,13.0500183 8.5036325,13.05 Z" id="Shape"></path>
        </g>
    </g>
</svg>