<?xml version="1.0" encoding="UTF-8"?>
<svg width="19px" height="19px" viewBox="0 0 19 19" version="1.1" xmlns="http://www.w3.org/2000/svg" xmlns:xlink="http://www.w3.org/1999/xlink">
    <!-- Generator: Sketch 52.2 (67145) - http://www.bohemiancoding.com/sketch -->
    <title>Group 35</title>
    <desc>Created with Sketch.</desc>
    <g id="改版" stroke="none" stroke-width="1" fill="none" fill-rule="evenodd">
        <g id="Group-35" transform="translate(1.000000, 1.000000)" fill="#EA3131" fill-rule="nonzero" stroke="#EA3131" stroke-width="0.1">
            <g id="交易-2-copy-5">
                <path d="M8.49653739,17.0499852 C4.43038861,17.0472858 0.928449471,14.1821543 0.121099235,10.1975628 C-0.686253388,6.21295941 1.4243008,2.2109725 5.16884771,0.626173173 C9.51925972,-1.21141312 14.5358522,0.825095232 16.3737218,5.17484643 C18.2115931,9.52460158 16.1747695,14.5404352 11.8243858,16.3780095 C10.7716121,16.8235641 9.63973755,17.0521178 8.49653739,17.0499852 Z M8.54660062,0.784203447 L8.49664011,0.834203431 C4.84891171,0.837084482 1.70760395,3.40763828 0.983530219,6.98222814 C0.259456876,10.5568161 2.1528565,14.1468914 5.51192753,15.5686277 C9.41413355,17.2126998 13.9106695,15.3847292 15.5582671,11.484507 C17.205863,7.58428878 15.3813922,3.08691639 11.4819636,1.43629923 C10.5375534,1.0366957 9.52219473,0.831779321 8.54660062,0.78382325 L8.54660062,0.784203447 Z" id="Shape"></path>
            </g>
            <g id="分组-4" transform="translate(5.000000, 4.000000)">
                <g id="lixifuji">
                    <path d="M3.50089038,3.89505361 C5.4329842,3.89505361 6.99996723,3.02300371 6.99996723,1.94752816 C6.99996723,0.872052617 5.43300605,2.71983763e-06 3.50089038,2.71983763e-06 C1.56879656,-0.00177718877 0.0018135366,0.870272708 0.0018135366,1.94575879 C0.0018135366,3.02298265 1.56877471,3.89505361 3.50089038,3.89505361 Z M3.50272577,0.528941004 C5.09720681,0.528941004 6.56508989,1.24885611 6.56508989,1.85737421 C6.56508989,2.46589232 5.09537142,3.19993084 3.50272577,3.19993084 C1.90824472,3.19993084 0.440361646,2.46586072 0.440361646,1.85737421 C0.438515335,1.24888771 1.90825565,0.528941004 3.50272577,0.528941004 Z M3.50089038,4.70696576 C1.83301573,4.70696576 0.440350721,3.85967661 0.0880657743,2.93633585 C0.033026031,3.07431563 0,3.21758248 0,3.36438807 C0,4.43985309 1.56696117,5.31191352 3.49907684,5.31191352 C5.43117067,5.31191352 6.99815369,4.43986362 6.99815369,3.36438807 C6.99815369,3.21757194 6.96696304,3.0743051 6.91008791,2.93633585 C6.56328728,3.85968714 5.16880873,4.70696576 3.50093408,4.70696576 L3.50089038,4.70696576 Z M3.50089038,6.1238362 C1.9082338,6.1238362 0.566948686,5.17220649 0.143116442,4.23470019 C0.0513908203,4.40805697 0.00184631136,4.5902501 0.00184631136,4.7795102 C0.00184631136,5.85497522 1.56880748,6.72703565 3.50092316,6.72703565 C5.43301698,6.72703565 7,5.85498575 7,4.7795102 C7,4.5902501 6.9486201,4.40627706 6.85872987,4.23470019 C6.4348867,5.17220649 5.09359066,6.1238362 3.50095593,6.1238362 L3.50089038,6.1238362 Z M3.50089038,7.25943896 C1.83301573,7.25943896 0.440350721,6.4121498 0.0880657743,5.48880905 C0.033026031,5.62678883 0,5.77005567 0,5.91686127 C0,6.99232628 1.56696117,7.86615609 3.49907684,7.86615609 C5.43117067,7.86615609 6.99815369,6.99410619 6.99815369,5.91686127 C6.99815369,5.77004514 6.96696304,5.6267783 6.91008791,5.48880905 C6.56328728,6.41216033 5.16880873,7.25943896 3.50093408,7.25943896 L3.50089038,7.25943896 Z M3.50089038,8.39505225 C1.83301573,8.39505225 0.440350721,7.54776309 0.0880657743,6.62442234 C0.033026031,6.76240211 0,6.90566896 0,7.05247456 C0,8.12793957 1.56696117,9 3.49907684,9 C5.43117067,9 6.99815369,8.1279501 6.99815369,7.05247456 C6.99815369,6.90565843 6.96696304,6.76239158 6.91008791,6.62442234 C6.56328728,7.54777362 5.16880873,8.39505225 3.50093408,8.39505225 L3.50089038,8.39505225 Z" id="形状"></path>
                </g>
            </g>
        </g>
    </g>
</svg>