<?xml version="1.0" encoding="UTF-8"?>
<svg width="22px" height="22px" viewBox="0 0 22 22" version="1.1" xmlns="http://www.w3.org/2000/svg" xmlns:xlink="http://www.w3.org/1999/xlink">
    <!-- Generator: Sketch 52.2 (67145) - http://www.bohemiancoding.com/sketch -->
    <title>Group 7</title>
    <desc>Created with Sketch.</desc>
    <defs>
        <linearGradient x1="0%" y1="50%" x2="99.0561777%" y2="50%" id="linearGradient-1">
            <stop stop-color="#EE5A5A" offset="0%"></stop>
            <stop stop-color="#EA3131" offset="100%"></stop>
        </linearGradient>
    </defs>
    <g id="改版" stroke="none" stroke-width="1" fill="none" fill-rule="evenodd">
        <g id="我的" transform="translate(-28.000000, -398.000000)" fill-rule="nonzero">
            <g id="分组-20" transform="translate(28.000000, 398.000000)">
                <g id="Group-7">
                    <circle id="椭圆形-copy-3" fill="url(#linearGradient-1)" cx="11" cy="11" r="11"></circle>
                    <g id="交易-2" transform="translate(5.000000, 5.000000)" fill="#FFFFFF">
                        <path d="M11.5186351,4.00241247 L1.47883844,4.00241247 C1.31203716,4.00165875 1.16418983,3.88528707 1.11115018,3.71300244 C1.05811053,3.54071782 1.11165241,3.35076428 1.24430589,3.24059836 L5.09154156,0.0740781911 C5.26313608,-0.0537341017 5.49661931,-0.0122400497 5.62203157,0.168355544 C5.74744384,0.348951138 5.72058949,0.60500586 5.56101665,0.750129565 L2.63879044,3.15505899 L11.5186351,3.15505899 C11.662797,3.14622307 11.7996181,3.22498737 11.8741428,3.35971531 C11.9486676,3.49444325 11.9486676,3.66302822 11.8741428,3.79775616 C11.7996181,3.93248409 11.662797,4.01124839 11.5186351,4.00241247 Z M6.23599805,10.2714585 C6.18274413,10.0990806 6.2362485,9.90889948 6.36901973,9.79863334 L9.29124595,7.39348057 L0.411401238,7.39348057 C0.267239403,7.40231649 0.130418244,7.3235522 0.055893533,7.18882426 C-0.0186311777,7.05409632 -0.0186311777,6.88551135 0.055893533,6.75078341 C0.130418244,6.61605547 0.267239403,6.53729118 0.411401238,6.5461271 L10.451198,6.5461271 C10.6179992,6.54688081 10.7658466,6.6632525 10.8188862,6.83553712 C10.8719259,7.00782175 10.818384,7.19777529 10.6857305,7.3079412 L6.83849482,10.4746847 C6.77113893,10.5303457 6.68891403,10.560466 6.60437231,10.5604475 C6.43742055,10.5600744 6.28925197,10.4438364 6.23599805,10.2714585 Z" id="Shape"></path>
                    </g>
                </g>
            </g>
        </g>
    </g>
</svg>