<?xml version="1.0" encoding="UTF-8"?>
<svg preserveAspectRatio="none" viewBox="0 0 16 15" version="1.1" xmlns="http://www.w3.org/2000/svg" xmlns:xlink="http://www.w3.org/1999/xlink">
    <g id="改版" stroke="none" stroke-width="1" fill="none" fill-rule="evenodd">
        <g id="喇叭-copy-2" fill="#EA3131">
            <polygon id="路径" points="2.82352941 4.70588235 3.76470588 4.70588235 3.76470588 9.41176471 2.82352941 9.41176471"></polygon>
            <path d="M12.9071348,13.1764706 C12.7075951,13.1764706 12.5080554,13.0865616 12.3767793,12.9155583 C12.1492341,12.6211505 12.2017445,12.1962865 12.4940527,11.9653438 C13.868076,10.8864362 14.6557326,9.26278588 14.6557326,7.51220529 C14.6557326,5.77925391 13.8803284,4.16618116 12.53081,3.08903641 C12.2402522,2.85633083 12.1912424,2.43146686 12.420538,2.13882197 C12.651584,1.84617708 13.0734179,1.79681529 13.3639757,2.02775794 C15.0390589,3.36228917 16,5.36144163 16,7.51220529 C16,9.68412401 15.0233057,11.6973798 13.320217,13.033674 C13.1976926,13.1288717 13.0506634,13.1764706 12.9071348,13.1764706 Z" id="路径"></path>
            <path d="M11.7205882,9.87306143 C11.5620915,9.87306143 11.4052288,9.8110212 11.2826797,9.6852174 C11.0343137,9.43016313 11.0277778,9.01139159 11.2696078,8.74944396 C11.6895425,8.29275894 11.9215686,7.69303673 11.9215686,7.05712439 C11.9215686,6.41948871 11.6879085,5.81804316 11.2663399,5.36135815 C11.0245098,5.09941051 11.0294118,4.68063897 11.2761438,4.4255847 C11.5245098,4.17053043 11.9215686,4.17570045 12.1633987,4.43592474 C12.8169935,5.14077067 13.1764706,6.07137409 13.1764706,7.05712439 C13.1764706,8.03942801 12.8186275,8.96658476 12.1699346,9.67143068 C12.0473856,9.80585118 11.8839869,9.87306143 11.7205882,9.87306143 Z M9.62091503,14.1176471 C9.48529412,14.1176471 9.35130719,14.0831803 9.22712418,14.0142467 L3.1372549,10.5882474 L0.836601307,10.5882474 C0.374183007,10.5882474 0,10.1918793 0,9.70589748 L0,4.41179798 C0,3.92409285 0.374183007,3.52944807 0.836601307,3.52944807 L3.1372549,3.52944807 L9.22712418,0.103448782 C9.4869281,-0.0413117508 9.79901961,-0.0344183921 10.0522876,0.125852198 C10.3039216,0.284399449 10.4575163,0.572197175 10.4575163,0.882398318 L10.4575163,13.2352971 C10.4575163,13.5454983 10.3039216,13.833296 10.0522876,13.9918433 C9.91830065,14.0745636 9.76960784,14.1176471 9.62091503,14.1176471 Z M1.67320261,8.82354756 L3.34640523,8.82354756 C3.48366013,8.82354756 3.61928105,8.8597377 3.74019608,8.92694794 L8.78431373,11.7635651 L8.78431373,2.35240706 L3.74019608,5.18902418 C3.61928105,5.25795776 3.48366013,5.29242456 3.34640523,5.29242456 L1.67320261,5.29242456 L1.67320261,8.82354756 Z" id="形状" fill-rule="nonzero"></path>
        </g>
    </g>
</svg>