<?xml version="1.0" encoding="UTF-8"?>
<svg width="19px" height="19px" viewBox="0 0 19 19" version="1.1" xmlns="http://www.w3.org/2000/svg" xmlns:xlink="http://www.w3.org/1999/xlink">
    <!-- Generator: Sketch 52.2 (67145) - http://www.bohemiancoding.com/sketch -->
    <title>Group 36</title>
    <desc>Created with Sketch.</desc>
    <defs>
        <polygon id="path-1" points="0 9 8.37931034 9 8.37931034 0 0 0"></polygon>
    </defs>
    <g id="改版" stroke="none" stroke-width="1" fill="none" fill-rule="evenodd">
        <g id="Group-36" transform="translate(1.000000, 1.000000)">
            <g id="交易-2-copy" fill="#EA3131" fill-rule="nonzero" stroke="#EA3131" stroke-width="0.1">
                <path d="M8.49653739,17.0499852 C4.43038861,17.0472858 0.928449471,14.1821543 0.121099235,10.1975628 C-0.686253388,6.21295941 1.4243008,2.2109725 5.16884771,0.626173173 C9.51925972,-1.21141312 14.5358522,0.825095232 16.3737218,5.17484643 C18.2115931,9.52460158 16.1747695,14.5404352 11.8243858,16.3780095 C10.7716121,16.8235641 9.63973755,17.0521178 8.49653739,17.0499852 Z M8.54660062,0.784203447 L8.49664011,0.834203431 C4.84891171,0.837084482 1.70760395,3.40763828 0.983530219,6.98222814 C0.259456876,10.5568161 2.1528565,14.1468914 5.51192753,15.5686277 C9.41413355,17.2126998 13.9106695,15.3847292 15.5582671,11.484507 C17.205863,7.58428878 15.3813922,3.08691639 11.4819636,1.43629923 C10.5375534,1.0366957 9.52219473,0.831779321 8.54660062,0.78382325 L8.54660062,0.784203447 Z" id="Shape"></path>
            </g>
            <g id="Group" transform="translate(3.000000, 4.000000)">
                <g id="分组-copy-2">
                    <polygon id="Fill-1" fill="#EA3131" points="5 9 6 9 6 6 5 6"></polygon>
                    <g id="分组">
                        <path d="M5.5,5.43103448 C2.55433333,5.43103448 0.166666667,5.01424138 0.166666667,4.5 C0.166666667,3.98575862 2.55433333,3.56896552 5.5,3.56896552 C8.44566667,3.56896552 10.8333333,3.98575862 10.8333333,4.5 C10.8333333,5.01424138 8.44566667,5.43103448 5.5,5.43103448 Z" id="Fill-2" stroke="#EA3131" stroke-width="0.8"></path>
                        <polygon id="Fill-6" fill="#EA3131" points="1.33333333 1 9.71264368 1 9.71264368 1.86206897 4.111 1.86206897 1.33333333 1.86206897"></polygon>
                        <mask id="mask-2" fill="white">
                            <use xlink:href="#path-1"></use>
                        </mask>
                        <g id="Clip-9"></g>
                        <polygon id="Fill-8" fill="#EA3131" mask="url(#mask-2)" points="5 5.10344828 6.03134796 5.10344828 6.03134796 1 5 1"></polygon>
                    </g>
                </g>
            </g>
        </g>
    </g>
</svg>