<?xml version="1.0" encoding="UTF-8"?>
<svg width="33px" height="33px" viewBox="0 0 33 33" version="1.1" xmlns="http://www.w3.org/2000/svg" xmlns:xlink="http://www.w3.org/1999/xlink">
    <!-- Generator: Sketch 52.2 (67145) - http://www.bohemiancoding.com/sketch -->
    <title>新手教学</title>
    <desc>Created with Sketch.</desc>
    <g id="改版" stroke="none" stroke-width="1" fill="none" fill-rule="evenodd">
        <g id="新手教学">
            <g id="分组-24-copy-3" fill="#E9EFFD">
                <circle id="椭圆形" cx="16.5" cy="16.5" r="16.5"></circle>
            </g>
            <g id="xinshouzhinan" transform="translate(10.000000, 8.929293)" fill-rule="nonzero">
                <path d="M12.0539057,13.8549255 C12.4364644,13.8549255 12.7465896,13.5448003 12.7465896,13.1622415 C12.7465896,12.7796828 12.4364644,12.4695576 12.0539057,12.4695576 L2.35549943,12.4695576 C1.97294066,12.4695576 1.66281551,12.7796828 1.66281551,13.1622415 C1.66281551,13.5448003 1.97294066,13.8549255 2.35549943,13.8549255 L12.0539057,13.8549255 Z" id="形状" fill="#EA3131"></path>
                <path d="M1.38536786,13.8549255 L1.38536786,12.4695576 C1.38582664,11.7044679 2.00606152,11.084419 2.77115134,11.0841898 L13.8549255,11.0841898 L13.8549255,1.38536786 C13.8544669,0.620440346 13.2344851,0.000458579912 12.4695576,0 L1.38536786,0 C0.620440346,0.000458579912 0.000458579912,0.620440346 0,1.38536786 L0,15.240709 C0.000458579912,16.0056365 0.620440346,16.6256183 1.38536786,16.6260768 L12.4695576,16.6260768 C13.2344851,16.6256183 13.8544669,16.0056365 13.8549255,15.240709 L2.77115134,15.240709 C2.0058993,15.2404795 1.38559727,14.6201775 1.38536786,13.8549255 Z" id="路径" fill="#4371D3"></path>
            </g>
        </g>
    </g>
</svg>