<?xml version="1.0" encoding="UTF-8"?>
<svg width="118px" height="32px" viewBox="0 0 118 32" version="1.1" xmlns="http://www.w3.org/2000/svg" xmlns:xlink="http://www.w3.org/1999/xlink">
    <!-- Generator: Sketch 52.2 (67145) - http://www.bohemiancoding.com/sketch -->
    <title>分组 9 copy 2</title>
    <desc>Created with Sketch.</desc>
    <defs>
        <path d="M0,2.48689958e-14 L108,2.48689958e-14 L98.5329064,20.8276059 C98.2083662,21.5415945 97.4964604,22 96.7121735,22 L11.2878265,22 C10.5035396,22 9.79163384,21.5415945 9.46709359,20.8276059 L0,2.48689958e-14 Z" id="path-1"></path>
        <filter x="-7.9%" y="-29.5%" width="115.7%" height="177.3%" filterUnits="objectBoundingBox" id="filter-2">
            <feOffset dx="0" dy="2" in="SourceAlpha" result="shadowOffsetOuter1"></feOffset>
            <feGaussianBlur stdDeviation="2.5" in="shadowOffsetOuter1" result="shadowBlurOuter1"></feGaussianBlur>
            <feColorMatrix values="0 0 0 0 0.905665391   0 0 0 0 0.905665391   0 0 0 0 0.905665391  0 0 0 1 0" type="matrix" in="shadowBlurOuter1"></feColorMatrix>
        </filter>
    </defs>
    <g id="改版" stroke="none" stroke-width="1" fill="none" fill-rule="evenodd">
        <g id="分组-9-copy-2" transform="translate(5.000000, 3.000000)">
            <g id="Group-Copy-3">
                <g id="Group-2">
                    <g id="Rectangle-5">
                        <use fill="black" fill-opacity="1" filter="url(#filter-2)" xlink:href="#path-1"></use>
                        <use fill="#FFFFFF" fill-rule="evenodd" xlink:href="#path-1"></use>
                    </g>
                </g>
            </g>
            <g id="Group" transform="translate(54.500000, 11.000000) scale(-1, 1) translate(-54.500000, -11.000000) translate(48.000000, 4.000000)" fill="#A6A6A6">
                <path d="M6.51725693,6.81083254 L1.07321503,0.235130066 C0.930150512,0.0505705315 0.706013388,-0.0345736846 0.488414443,0.0129786135 C0.270815498,0.0605309116 0.0943090077,0.233228514 0.0278878806,0.463567333 C-0.0385332465,0.693906152 0.0156785314,0.945308843 0.169332899,1.11950705 L5.95962519,8.11553541 C6.06539431,8.34350591 6.28256309,8.48467932 6.51725693,8.47803124 C6.75232687,8.48476606 6.96973109,8.34288969 7.07488865,8.11412493 L12.8638841,1.11950705 C13.0680416,0.846119426 13.0394579,0.446686466 12.7988672,0.21094928 C12.5582764,-0.0247879071 12.1900528,-0.0141572091 11.9612988,0.235130066 L6.51725693,6.81083254 Z" id="路径" opacity="0.299130394"></path>
                <path d="M6.49645653,11.8996245 L1.06978984,5.33116049 C0.927181948,5.14680405 0.703760158,5.06175351 0.486855667,5.10925345 C0.269951176,5.15675339 0.0940079951,5.32926092 0.0277988619,5.55934622 C-0.0384102712,5.78943152 0.0156285245,6.04055751 0.168792544,6.21456395 L5.94060453,13.2028912 C6.04603608,13.4306108 6.26251174,13.5716288 6.49645653,13.564988 C6.73077623,13.5717154 6.94748659,13.4299952 7.05230852,13.2014823 L12.8228278,6.21456395 C12.9810662,6.04176023 13.0389905,5.78793846 12.9734663,5.55447219 C12.9079422,5.32100592 12.7296477,5.14594188 12.5097918,5.09919867 C12.2899359,5.05245546 12.0643471,5.14165057 11.9231232,5.33116049 L6.49645653,11.8996245 Z" id="路径"></path>
            </g>
        </g>
    </g>
</svg>