<?xml version="1.0" encoding="UTF-8"?>
<svg width="18px" height="18px" viewBox="0 0 18 18" version="1.1" xmlns="http://www.w3.org/2000/svg" xmlns:xlink="http://www.w3.org/1999/xlink">
    <!-- Generator: Sketch 52.2 (67145) - http://www.bohemiancoding.com/sketch -->
    <title>copy</title>
    <desc>Created with Sketch.</desc>
    <g id="改版" stroke="none" stroke-width="1" fill="none" fill-rule="evenodd">
        <g id="OTC充值-又改-Copy" transform="translate(-285.000000, -336.000000)">
            <g id="copy" transform="translate(285.000000, 336.000000)">
                <path d="M16.1517857,17.9758929 L5.18303571,17.9758929 C4.17254464,17.9758929 3.34888393,17.1542411 3.34888393,16.1417411 L3.34888393,14.315625 L4.0921875,14.315625 L4.0921875,16.1417411 C4.0921875,16.7424107 4.58236607,17.2325893 5.18303571,17.2325893 L16.1517857,17.2325893 C16.7524554,17.2325893 17.2426339,16.7424107 17.2426339,16.1417411 L17.2426339,4.44375 C17.2426339,3.84308036 16.7524554,3.35290179 16.1517857,3.35290179 L13.6145089,3.35290179 L13.6145089,2.60959821 L16.1517857,2.60959821 C17.1622768,2.60959821 17.9859375,3.43325893 17.9859375,4.44375 L17.9859375,16.14375 C17.9859375,17.1542411 17.1642857,17.9758929 16.1517857,17.9758929 Z" id="路径" fill="#3063CF"></path>
                <path d="M10.040625,10.4142857 L4.09419643,10.4142857 C3.88928571,10.4142857 3.72254464,10.2475446 3.72254464,10.0426339 C3.72254464,9.83772321 3.88928571,9.67098214 4.09419643,9.67098214 L10.0426339,9.67098214 C10.2475446,9.67098214 10.4142857,9.83772321 10.4142857,10.0426339 C10.4142857,10.2475446 10.2475446,10.4142857 10.040625,10.4142857 Z M10.040625,7.44107143 L4.09419643,7.44107143 C3.88928571,7.44107143 3.72254464,7.27433036 3.72254464,7.06941964 C3.72254464,6.86450893 3.88928571,6.69776786 4.09419643,6.69776786 L10.0426339,6.69776786 C10.2475446,6.69776786 10.4142857,6.86450893 10.4142857,7.06941964 C10.4142857,7.27433036 10.2475446,7.44107143 10.040625,7.44107143 Z M10.040625,4.46785714 L4.09419643,4.46785714 C3.88928571,4.46785714 3.72254464,4.30111607 3.72254464,4.09620536 C3.72254464,3.89129464 3.88928571,3.72455357 4.09419643,3.72455357 L10.0426339,3.72455357 C10.2475446,3.72455357 10.4142857,3.89129464 10.4142857,4.09620536 C10.4122768,4.30111607 10.2475446,4.46785714 10.040625,4.46785714 Z" id="形状" fill="#2E61CE" fill-rule="nonzero"></path>
                <path d="M12.6421875,0.751339286 C13.0520089,0.751339286 13.3854911,1.08482143 13.3854911,1.49464286 L13.3854911,13.3895089 C13.3854911,13.7993304 13.0520089,14.1328125 12.6421875,14.1328125 L1.49263393,14.1328125 C1.0828125,14.1328125 0.749330357,13.7993304 0.749330357,13.3895089 L0.749330357,1.49464286 C0.749330357,1.08482143 1.0828125,0.751339286 1.49263393,0.751339286 L12.6421875,0.751339286 Z M12.6421875,0.00803571429 L1.49263393,0.00803571429 C0.670982143,0.00803571429 0.00602678571,0.672991071 0.00602678571,1.49464286 L0.00602678571,13.3895089 C0.00602678571,14.2111607 0.670982143,14.8761161 1.49263393,14.8761161 L12.6441964,14.8761161 C13.4658482,14.8761161 14.1308036,14.2111607 14.1308036,13.3895089 L14.1308036,1.49464286 C14.1308036,0.672991071 13.4638393,0.00803571429 12.6421875,0.00803571429 Z" id="形状" fill="#2E61CE" fill-rule="nonzero"></path>
            </g>
        </g>
    </g>
</svg>