<?xml version="1.0" encoding="UTF-8"?>
<svg viewBox="0 0 73 78" version="1.1" xmlns="http://www.w3.org/2000/svg" xmlns:xlink="http://www.w3.org/1999/xlink">
    <g id="改版" stroke="none" stroke-width="1" fill="none" fill-rule="evenodd">
        <g id="信用资本4" transform="translate(-152.000000, -213.000000)" fill="#DBDBDB" fill-rule="nonzero">
            <g id="Group-25" transform="translate(35.000000, 166.000000)">
                <g id="Group-24" transform="translate(117.000000, 47.000000)">
                    <g id="xinyongxinxichaxun">
                        <path d="M65.3344095,67.6108349 L72.1136393,73.5466935 C72.8778486,74.4165785 72.8778486,75.7184752 72.1136393,76.5883602 C70.8647126,78.1045849 69.058147,76.9293955 68.9383236,76.8095723 L62.2696999,70.970494 C58.7684887,74.0441611 54.2688746,75.7395017 49.6099146,75.7403804 C38.788955,75.7403804 30.0234246,66.7259864 30.0234246,55.6100773 C30.0234246,44.4849511 38.7935636,35.4705572 49.6099146,35.4705571 C60.421657,35.4705571 69.1917959,44.4849511 69.1917959,55.6100773 C69.2040412,59.9170684 67.8538684,64.117606 65.3344095,67.6108349 Z M49.605306,40.2035748 C41.3282858,40.2035748 34.6274019,47.1072364 34.6274019,55.6100773 C34.6274019,64.1083097 41.3282857,71.0027541 49.605306,71.0027541 C57.873109,71.0027541 64.5786014,64.1083097 64.5786014,55.6100773 C64.5786014,47.1072364 57.873109,40.2035748 49.6006974,40.2035748 L49.605306,40.2035748 Z M59.0667327,29.0047111 L59.0667327,12.4138021 C59.0667327,7.49644098 54.3383236,5.22901668 52.0985509,5.22901677 L12.003854,5.22901677 C8.86079844,5.22901677 5.60252819,8.42276677 5.03106357,14.3540168 L5.03106357,61.46759 C5.03106357,68.8413273 10.2387655,68.656984 12.003854,68.6569839 L26.4241191,68.6569839 C27.0964053,68.6690961 27.7363316,68.947834 28.2030651,69.431854 C28.6697986,69.9158739 28.9250899,70.5655098 28.9127555,71.237792 C28.9332972,72.6341993 27.8204494,73.784142 26.4241191,73.8093829 L11.6305585,73.8093829 C7.33535646,73.8093829 0.0630080278,71.0442314 0.0630080278,63.7949259 L0.0630080278,13.9622869 C0.0630080278,4.21973644 5.98964943,0.072009163 11.6305585,0.072009163 L52.476455,0.072009163 C58.8363035,0.072009163 64.0486141,4.16443338 64.0486141,12.0220723 L64.0486141,29.0185369 C64.0615566,30.4111483 62.9523214,31.5553039 61.5599777,31.5855192 C60.1610876,31.5577779 59.0482124,30.4036851 59.0713413,29.0047111 L59.0667327,29.0047111 Z M15.4881712,13.4553425 L48.7344095,13.4553425 C49.345546,13.4553424 49.931652,13.6981155 50.3637907,14.1302542 C50.7959295,14.562393 51.0387025,15.1484989 51.0387025,15.7596354 L51.0387025,15.8886759 C51.0387025,16.4998123 50.7959295,17.0859183 50.3637907,17.518057 C49.9316519,17.9501958 49.345546,18.1929688 48.7344095,18.1929688 L15.4835626,18.1929688 C14.2109368,18.1929688 13.1792698,17.1613017 13.1792698,15.8886759 L13.1792698,15.7596354 C13.1792697,15.148499 13.4220427,14.562393 13.8541815,14.1302543 C14.2863202,13.6981155 14.8724262,13.4553425 15.4835626,13.4553425 L15.4881712,13.4553425 Z M15.3719095,23.0720092 L48.6181478,23.0720092 C49.2292843,23.0720091 49.8153902,23.3147822 50.247529,23.7469209 C50.6796677,24.1790596 50.9224408,24.7651656 50.9224408,25.3763021 L50.9224408,25.5053425 C50.9224408,26.116479 50.6796678,26.7025849 50.247529,27.1347237 C49.8153902,27.5668624 49.2292843,27.8096355 48.6181478,27.8096354 L15.3673009,27.8096354 C14.7561644,27.8096354 14.1700585,27.5668624 13.7379198,27.1347237 C13.305781,26.7025849 13.063008,26.116479 13.063008,25.5053425 L13.063008,25.3763021 C13.063008,24.1036762 14.0946751,23.0720092 15.3673009,23.0720092 L15.3719095,23.0720092 Z M15.3719095,32.6886759 L34.4007852,32.6886759 C35.0119216,32.6886758 35.5980276,32.9314488 36.0301663,33.3635876 C36.4623051,33.7957263 36.7050781,34.3818323 36.7050781,34.9929687 L36.7050781,35.1220092 C36.7050781,35.7331457 36.4623051,36.3192516 36.0301664,36.7513904 C35.5980276,37.1835291 35.0119217,37.4263022 34.4007852,37.4263021 L15.3673009,37.4263021 C14.7561644,37.4263021 14.1700585,37.1835291 13.7379198,36.7513903 C13.305781,36.3192516 13.063008,35.7331456 13.063008,35.1220092 L13.063008,34.9929687 C13.063008,33.7203429 14.0946751,32.6886759 15.3673009,32.6886759 L15.3719095,32.6886759 Z" id="Shape"></path>
                    </g>
                </g>
            </g>
        </g>
    </g>
</svg>