<?xml version="1.0" encoding="UTF-8"?>
<svg width="14px" height="11px" viewBox="0 0 14 11" version="1.1" xmlns="http://www.w3.org/2000/svg" xmlns:xlink="http://www.w3.org/1999/xlink">
    <g id="改版" stroke="none" stroke-width="1" fill="none" fill-rule="evenodd">
        <g id="交易" transform="translate(-332.000000, -428.000000)" fill="#FFFFFF" fill-rule="nonzero">
            <g id="Group-10" transform="translate(317.000000, 424.000000)">
                <g id="fenxiang-2-copy" transform="translate(15.000000, 4.000000)">
                    <path d="M13.4920181,4.93113463 C13.216028,4.93113463 12.992036,5.11499666 12.992036,5.34154095 L12.992036,9.44560423 C12.992036,9.67214852 12.768044,9.85601056 12.4920539,9.85601056 L1.4924467,9.85601056 C1.21645656,9.85601056 0.992464555,9.67214852 0.992464555,9.44560423 L0.992464555,2.46869666 C0.992464555,2.24215237 1.21645656,2.05829033 1.4924467,2.05829033 L4.9923217,2.05829033 C4.9923217,2.05829033 4.9923217,2.05829033 4.9923217,2.05829033 C5.26831185,2.05829033 5.49230385,1.8744283 5.49230385,1.64788401 C5.49230385,1.42133971 5.26831185,1.23747768 4.9923217,1.23747768 C4.97632227,1.23747768 4.96282276,1.24363377 4.94732331,1.24486499 L1.49844648,1.24486499 C0.670976037,1.24486499 0,1.7964511 0,2.47690479 L0,9.45217073 C0,10.1326244 0.670976037,10.6842105 1.49844648,10.6842105 L12.5015535,10.6842105 C13.329024,10.6842105 14,10.1326244 14,9.45217073 L14,5.34154095 L13.9920003,5.34154095 C13.9920003,5.11499666 13.7680083,4.93113463 13.4920181,4.93113463 Z M4.29309326,6.73651206 C4.26872146,6.78945448 4.25287978,6.84691136 4.25287978,6.90888272 C4.25287978,7.13542701 4.43485592,7.31928905 4.65907652,7.31928905 C4.85526954,7.31928905 5.01124908,7.17605724 5.04943158,6.98891195 L5.05755551,6.98891195 C5.52874372,4.55602324 7.5199201,2.67636226 9.99122102,2.39400271 L9.13089634,3.26324331 C8.97207342,3.42371219 8.97207342,3.68349939 9.13089634,3.84355786 C9.28971926,4.00402673 9.54684179,4.00402673 9.70525852,3.84355786 L11.2605858,2.27211203 C11.4194087,2.11164316 11.4194087,1.85185595 11.2605858,1.69179748 L9.70525852,0.120351656 C9.5464356,-0.0401172185 9.28931306,-0.0401172185 9.13089634,0.120351656 C8.97207342,0.28082053 8.97207342,0.540607735 9.13089634,0.700666203 L9.98797144,1.56662355 C7.15637402,1.85144555 4.87111121,3.97447748 4.29309326,6.73651206 Z" id="Shape"></path>
                </g>
            </g>
        </g>
    </g>
</svg>