<?xml version="1.0" encoding="UTF-8"?>
<svg width="162px" height="145px" viewBox="0 0 162 145" version="1.1" xmlns="http://www.w3.org/2000/svg" xmlns:xlink="http://www.w3.org/1999/xlink">
    <!-- Generator: Sketch 52.2 (67145) - http://www.bohemiancoding.com/sketch -->
    <title>无持仓</title>
    <desc>Created with Sketch.</desc>
    <defs>
        <rect id="path-1" x="0" y="0" width="153.397059" height="96.3970588"></rect>
        <circle id="path-3" cx="51.1323529" cy="51.1323529" r="51.1323529"></circle>
    </defs>
    <g id="改版" stroke="none" stroke-width="1" fill="none" fill-rule="evenodd">
        <g id="无持仓页面" transform="translate(-94.000000, -305.000000)">
            <g id="无持仓" transform="translate(92.000000, 305.000000)">
                <g id="Group-59" transform="translate(17.602941, 24.308824)">
                    <mask id="mask-2" fill="white">
                        <use xlink:href="#path-1"></use>
                    </mask>
                    <g id="Rectangle" transform="translate(76.698529, 48.198529) scale(1, -1) translate(-76.698529, -48.198529) "></g>
                    <g id="球" mask="url(#mask-2)">
                        <g transform="translate(13.411765, 3.352941)">
                            <g id="Group-57" stroke-width="1" fill="none" transform="translate(14.250000, 0.000000)">
                                <g id="Group-58">
                                    <mask id="mask-4" fill="white">
                                        <use xlink:href="#path-3"></use>
                                    </mask>
                                    <use id="Oval" fill="#DADADA" xlink:href="#path-3"></use>
                                    <rect id="Rectangle" fill="#FFFFFF" mask="url(#mask-4)" x="-21.7941176" y="42.75" width="28.5" height="8.38235294" rx="4.19117647"></rect>
                                    <rect id="Rectangle-Copy-36" fill="#FFFFFF" mask="url(#mask-4)" x="-19.2794118" y="59.5147059" width="28.5" height="8.38235294" rx="4.19117647"></rect>
                                    <rect id="Rectangle-Copy-38" fill="#FFFFFF" mask="url(#mask-4)" x="-6.70588235" y="76.2794118" width="28.5" height="8.38235294" rx="4.19117647"></rect>
                                </g>
                                <rect id="Rectangle-Copy-42" fill="#DADADA" x="9.22058824" y="84.6617647" width="28.5" height="8.38235294" rx="4.19117647"></rect>
                                <rect id="Rectangle-Copy-39" fill="#DADADA" x="74.6029412" y="14.25" width="28.5" height="8.38235294" rx="4.19117647"></rect>
                                <rect id="Rectangle-Copy-40" fill="#DADADA" x="89.6911765" y="30.1764706" width="28.5" height="8.38235294" rx="4.19117647"></rect>
                                <rect id="Rectangle-Copy-41" fill="#DADADA" x="84.6617647" y="45.2647059" width="28.5" height="8.38235294" rx="4.19117647"></rect>
                            </g>
                            <rect id="Rectangle-Copy-35" fill="#DADADA" x="8.38235294" y="51.1323529" width="28.5" height="8.38235294" rx="4.19117647"></rect>
                            <rect id="Rectangle-Copy-37" fill="#DADADA" x="0" y="67.8970588" width="28.5" height="8.38235294" rx="4.19117647"></rect>
                        </g>
                    </g>
                </g>
                <rect id="Rectangle" fill="#6F6F6F" x="45.2647059" y="118.191176" width="98.0735294" height="2.51470588" rx="1.25735294"></rect>
                <rect id="Rectangle-Copy-46" fill="#6F6F6F" x="30.1764706" y="125.735294" width="57.8382353" height="2.51470588" rx="1.25735294"></rect>
                <rect id="Rectangle-Copy-47" fill="#6F6F6F" x="97.2352941" y="125.735294" width="25.1470588" height="2.51470588" rx="1.25735294"></rect>
                <rect id="Rectangle-Copy-49" fill="#6F6F6F" x="128.25" y="125.735294" width="8.38235294" height="2.51470588" rx="1.25735294"></rect>
                <rect id="Rectangle-Copy-48" fill="#6F6F6F" x="51.9705882" y="134.955882" width="68.7352941" height="2.51470588" rx="1.25735294"></rect>
                <g id="钱" transform="translate(11.912524, 44.603700) rotate(-21.000000) translate(-11.912524, -44.603700) translate(2.691936, 35.383112)">
                    <circle id="Oval" fill="#DADADA" cx="9.22058824" cy="9.22058824" r="9.22058824"></circle>
                    <g id="meiyuanqianbao" transform="translate(4.255656, 2.837104)" fill="#FFFFFF" fill-rule="nonzero">
                        <path d="M5.99929299,9.30924774 L6.41303733,9.30924774 C6.59888585,9.30491083 6.82678167,9.23655162 6.82678167,8.93690824 L6.82678167,8.19213669 C6.82678167,7.8924933 6.59888585,7.8241341 6.41303733,7.81979719 L5.99929299,7.81979719 L5.99929299,9.30924774 Z M4.34431561,5.95792781 L4.34431561,6.70268614 C4.34431561,7.00232952 4.57218205,7.07070195 4.75807465,7.07503886 L5.1718043,7.07503886 L5.1718043,5.58554864 L4.75807465,5.58554864 C4.57215267,5.58995166 4.34431561,5.65829765 4.34431561,5.95792781 Z" id="Shape"></path>
                        <path d="M6.8877476,3.27360668 C7.0145308,3.14732395 7.09275658,2.97461595 7.09275658,2.78349171 C7.09275658,2.40670356 6.78866833,2.10361758 6.40909949,2.08999155 C6.64669835,1.93502964 8.46557377,0.719992748 7.8020398,0.16847379 C7.09274399,-0.421304762 5.51903563,0.730255701 4.96491953,0.686585407 C4.41080344,0.730255701 2.83710767,-0.421292353 2.12782446,0.16847379 C1.46424011,0.719992748 3.28278812,1.93502964 3.52039957,2.08999155 C3.14149815,2.10361758 2.83710767,2.40669115 2.83710767,2.78349171 C2.83710767,2.97461595 2.91571124,3.14732395 3.04176405,3.27360668 C1.25508814,4.22583999 0,6.46409458 0,9.07430988 C0,9.55556422 0.046416652,10.0217654 0.127438014,10.4722805 C3.28313649,11.4040362 6.64672777,11.4040362 9.80242624,10.4722805 C9.88343501,10.0217654 9.92986425,9.55556422 9.92986425,9.07430988 C9.92988944,6.46409458 8.6748013,4.22583999 6.8877476,3.27360668 Z M6.02885065,6.97737876 C6.45691393,6.97737876 7.09275658,7.25656336 7.09275658,8.02585053 L7.09275658,8.72483584 C7.09275658,9.49414782 6.45688875,9.77332001 6.02885065,9.77332001 L5.67421534,9.77332001 L5.67421534,10.1227816 C5.67421534,10.3152958 5.51489264,10.4722929 5.31958003,10.4722929 C5.12425483,10.4722929 4.96493213,10.3152834 4.96493213,10.1227941 L4.96493213,9.77332001 L3.90102619,9.77332001 C3.70567581,9.77332001 3.54637829,9.61632289 3.54637829,9.42380874 C3.54637829,9.23134424 3.7056884,9.07430988 3.90102619,9.07430988 L4.96493213,9.07430988 L4.96493213,7.67637648 L4.61030941,7.67637648 C4.18220835,7.67637648 3.54637829,7.39719188 3.54637829,6.62790472 L3.54637829,5.928907 C3.54637829,5.15961983 4.18223354,4.88044764 4.61030941,4.88044764 L4.96493213,4.88044764 L4.96493213,4.5309736 C4.96493213,4.33845946 5.12422964,4.18147474 5.31958003,4.18147474 C5.51489264,4.18147474 5.67421534,4.33848428 5.67421534,4.5309736 L5.67421534,4.88043523 L6.73813387,4.88043523 C6.93347166,4.88043523 7.09275658,5.03746959 7.09275658,5.2299341 C7.09275658,5.42242342 6.93345907,5.57939573 6.73814646,5.57939573 L5.67421534,5.57939573 L5.67421534,6.97737876 L6.02885065,6.97737876 Z" id="Shape"></path>
                    </g>
                </g>
                <g id="钱-copy-3" transform="translate(49.003019, 24.694195) rotate(-21.000000) translate(-49.003019, -24.694195) translate(44.811842, 20.503019)" stroke="#DADADA" stroke-width="2">
                    <circle id="Oval" cx="4.26914538" cy="4.42417264" r="3.77205882"></circle>
                </g>
                <g id="钱-copy-5" transform="translate(154.375945, 119.170062) rotate(-21.000000) translate(-154.375945, -119.170062) translate(151.023003, 115.817121)" stroke="#DADADA" stroke-width="2">
                    <circle id="Oval" cx="3.4153163" cy="3.53933811" r="3.01764706"></circle>
                </g>
                <g id="钱-copy-6" transform="translate(93.533561, 127.062972) rotate(-21.000000) translate(-93.533561, -127.062972) translate(91.857090, 125.386502)" fill="#6F6F6F">
                    <circle id="Oval" cx="1.79396601" cy="1.60401244" r="1.40823529"></circle>
                </g>
                <g id="钱-copy-4" transform="translate(58.275643, 3.790349) rotate(-21.000000) translate(-58.275643, -3.790349) translate(55.341819, 0.856525)" stroke="#DADADA" stroke-width="2">
                    <circle id="Oval" cx="2.98840177" cy="3.09692085" r="2.64044118"></circle>
                </g>
                <g id="钱-copy" transform="translate(142.843954, 17.108660) rotate(15.000000) translate(-142.843954, -17.108660) translate(135.718954, 9.983660)">
                    <circle id="Oval" fill="#DADADA" cx="7.125" cy="7.125" r="7.125"></circle>
                    <g id="meiyuanqianbao" transform="translate(3.288462, 2.192308)" fill="#FFFFFF" fill-rule="nonzero">
                        <path d="M4.63581731,7.19350962 L4.95552885,7.19350962 C5.09913906,7.19015837 5.27524038,7.13733535 5.27524038,6.90579273 L5.27524038,6.33028744 C5.27524038,6.09874482 5.09913906,6.0459218 4.95552885,6.04257055 L4.63581731,6.04257055 L4.63581731,7.19350962 Z M3.35697115,4.60385331 L3.35697115,5.17934838 C3.35697115,5.41089099 3.53304977,5.46372423 3.67669404,5.46707548 L3.99639423,5.46707548 L3.99639423,4.31610577 L3.67669404,4.31610577 C3.53302706,4.3195081 3.35697115,4.37232091 3.35697115,4.60385331 Z" id="Shape"></path>
                        <path d="M5.32235042,2.52960516 C5.42031925,2.43202306 5.48076645,2.29856687 5.48076645,2.15087995 C5.48076645,1.85972548 5.24578916,1.62552267 4.95248597,1.61499347 C5.13608509,1.49525018 6.54157973,0.556358032 6.02884893,0.130184293 C5.48075672,-0.32555368 4.26470935,0.564288496 3.83652873,0.530543269 C3.40834811,0.564288496 2.19231047,-0.325544091 1.64422799,0.130184293 C1.13145827,0.556358032 2.53669991,1.49525018 2.72030876,1.61499347 C2.4275213,1.62552267 2.19231047,1.85971589 2.19231047,2.15087995 C2.19231047,2.29856687 2.25304959,2.43202306 2.35045404,2.52960516 C0.969840834,3.26542181 0,4.99498218 0,7.01196673 C0,7.38384508 0.0358674129,7.74409144 0.0984748288,8.09221675 C2.5369691,8.8122098 5.13610782,8.8122098 7.57460209,8.09221675 C7.63719978,7.74409144 7.67307692,7.38384508 7.67307692,7.01196673 C7.67309638,4.99498218 6.70325555,3.26542181 5.32235042,2.52960516 Z M4.65865732,5.39161086 C4.98943349,5.39161086 5.48076645,5.60734442 5.48076645,6.20179359 L5.48076645,6.7419186 C5.48076645,7.33638695 4.98941403,7.55211092 4.65865732,7.55211092 L4.38462095,7.55211092 L4.38462095,7.82214945 C4.38462095,7.97091038 4.26150795,8.09222634 4.11058457,8.09222634 C3.95965146,8.09222634 3.83653846,7.97090079 3.83653846,7.82215904 L3.83653846,7.55211092 L3.01442933,7.55211092 C2.86347676,7.55211092 2.74038323,7.43079496 2.74038323,7.28203403 C2.74038323,7.13331146 2.86348649,7.01196673 3.01442933,7.01196673 L3.83653846,7.01196673 L3.83653846,5.93174547 L3.56251182,5.93174547 C3.23170645,5.93174547 2.74038323,5.71601191 2.74038323,5.12156274 L2.74038323,4.58142813 C2.74038323,3.98697896 3.23172591,3.771255 3.56251182,3.771255 L3.83653846,3.771255 L3.83653846,3.50120687 C3.83653846,3.35244595 3.959632,3.23113957 4.11058457,3.23113957 C4.26150795,3.23113957 4.38462095,3.35246512 4.38462095,3.50120687 L4.38462095,3.77124541 L5.2067398,3.77124541 C5.35768265,3.77124541 5.48076645,3.89259014 5.48076645,4.04131271 C5.48076645,4.19005446 5.35767291,4.31135124 5.20674954,4.31135124 L4.38462095,4.31135124 L4.38462095,5.39161086 L4.65865732,5.39161086 Z" id="Shape"></path>
                    </g>
                </g>
                <g id="钱-copy-2" transform="translate(137.959659, 138.797894) rotate(-5.000000) translate(-137.959659, -138.797894) translate(132.092012, 132.930247)">
                    <circle id="Oval" fill="#DADADA" cx="5.86764706" cy="5.86764706" r="5.86764706"></circle>
                    <g id="meiyuanqianbao" transform="translate(2.708145, 1.805430)" fill="#FFFFFF" fill-rule="nonzero">
                        <path d="M3.8177319,5.92406674 L4.08102376,5.92406674 C4.19929099,5.92130689 4.34431561,5.87780558 4.34431561,5.68712343 L4.34431561,5.21317789 C4.34431561,5.02249574 4.19929099,4.97899443 4.08102376,4.97623457 L3.8177319,4.97623457 L3.8177319,5.92406674 Z M2.76456448,3.7914086 L2.76456448,4.26534572 C2.76456448,4.45602788 2.9095704,4.4995376 3.02786568,4.50229746 L3.29114819,4.50229746 L3.29114819,3.55444005 L3.02786568,3.55444005 C2.9095517,3.55724197 2.76456448,3.60073487 2.76456448,3.7914086 Z" id="Shape"></path>
                        <path d="M4.38311211,2.08320425 C4.46379233,2.00284252 4.51357237,1.89293742 4.51357237,1.7713129 C4.51357237,1.53153863 4.32006166,1.33866573 4.07851786,1.32999462 C4.22971713,1.2313825 5.38718331,0.458177203 4.96493442,0.107210594 C4.51356436,-0.268103031 3.51211358,0.464708173 3.15949425,0.436917986 C2.80687491,0.464708173 1.80543215,-0.268095133 1.35407011,0.107210594 C0.931789162,0.458177203 2.08904699,1.2313825 2.24025427,1.32999462 C1.99913519,1.33866573 1.80543215,1.53153073 1.80543215,1.7713129 C1.80543215,1.89293742 1.8554526,2.00284252 1.93566803,2.08320425 C0.798692451,2.6891709 0,4.11351473 0,5.77456083 C0,6.08081359 0.0295378695,6.37748707 0.0810969178,6.6641785 C2.08926867,7.25711395 4.22973585,7.25711395 6.23790761,6.6641785 C6.28945864,6.37748707 6.31900452,6.08081359 6.31900452,5.77456083 C6.31902055,4.11351473 5.5203281,2.6891709 4.38311211,2.08320425 Z M3.83654132,4.44015012 C4.10894523,4.44015012 4.51357237,4.61781305 4.51357237,5.10735943 L4.51357237,5.55216826 C4.51357237,6.04173043 4.1089292,6.21938546 3.83654132,6.21938546 L3.61086431,6.21938546 L3.61086431,6.44177014 C3.61086431,6.56427914 3.50947713,6.6641864 3.38518729,6.6641864 C3.26088944,6.6641864 3.15950226,6.56427124 3.15950226,6.44177803 L3.15950226,6.21938546 L2.48247121,6.21938546 C2.35815733,6.21938546 2.25678619,6.1194782 2.25678619,5.9969692 C2.25678619,5.87449179 2.35816535,5.77456083 2.48247121,5.77456083 L3.15950226,5.77456083 L3.15950226,4.88496685 L2.93383326,4.88496685 C2.66140531,4.88496685 2.25678619,4.70730393 2.25678619,4.21775755 L2.25678619,3.77294082 C2.25678619,3.28339444 2.66142134,3.10573941 2.93383326,3.10573941 L3.15950226,3.10573941 L3.15950226,2.88334684 C3.15950226,2.76083784 3.26087341,2.66093847 3.38518729,2.66093847 C3.50947713,2.66093847 3.61086431,2.76085363 3.61086431,2.88334684 L3.61086431,3.10573151 L4.28790337,3.10573151 C4.41220924,3.10573151 4.51357237,3.20566247 4.51357237,3.32813988 C4.51357237,3.45063309 4.41220122,3.55052455 4.28791138,3.55052455 L3.61086431,3.55052455 L3.61086431,4.44015012 L3.83654132,4.44015012 Z" id="Shape"></path>
                    </g>
                </g>
                <g id="本" transform="translate(77.955882, 51.132353)">
                    <path d="M30.9800455,55.2875 L41.75,42.4666071 L41.75,5 C41.75,2.790861 39.959139,1 37.75,1 L5,1 C2.790861,1 1,2.790861 1,5 L1,51.2875 C1,53.496639 2.790861,55.2875 5,55.2875 L30.9800455,55.2875 Z" id="Rectangle" stroke="#6F6F6F" stroke-width="2" fill="#FFFFFF"></path>
                    <path d="M31.6375,43.0375 L31.6375,53.5669818 L40.5875595,43.0375 L31.6375,43.0375 Z" id="Rectangle" stroke="#6F6F6F" stroke-width="2" fill="#FFFFFF"></path>
                    <rect id="Rectangle" fill="#6F6F6F" x="9.975" y="7.125" width="19.2375" height="2.85" rx="1.425"></rect>
                    <rect id="Rectangle-Copy-43" fill="#6F6F6F" x="6.4125" y="18.525" width="30.6375" height="1.425" rx="0.7125"></rect>
                    <rect id="Rectangle-Copy-44" fill="#6F6F6F" x="6.4125" y="24.9375" width="24.9375" height="1.425" rx="0.7125"></rect>
                    <rect id="Rectangle-Copy-45" fill="#6F6F6F" x="6.4125" y="31.35" width="15.675" height="1.425" rx="0.7125"></rect>
                    <circle id="Oval" fill="#6F6F6F" cx="7.125" cy="8.55" r="1.425"></circle>
                </g>
            </g>
        </g>
    </g>
</svg>