<?xml version="1.0" encoding="UTF-8"?>
<svg viewBox="0 0 18 15" version="1.1" xmlns="http://www.w3.org/2000/svg" xmlns:xlink="http://www.w3.org/1999/xlink">
    <!-- Generator: Sketch 52.2 (67145) - http://www.bohemiancoding.com/sketch -->
    <title>Group 65</title>
    <desc>Created with Sketch.</desc>
    <g id="改版" stroke="none" stroke-width="1" fill="none" fill-rule="evenodd">
        <g id="行情页面新增-copy-6" transform="translate(-342.000000, -82.000000)">
            <g id="Group-65" transform="translate(342.000000, 82.000000)">
                <g id="ai44" transform="translate(0.000000, 2.000000)" fill="#4A4A4A" fill-rule="nonzero">
                    <path d="M0,6 C1.39154984,9.51974707 4.90933509,12 9,12 C13.0907369,12 16.6096972,9.51977053 18,6 C16.6096732,2.48020603 13.0907369,0 9,0 C4.90935907,0 1.39154984,2.48022947 0,6 Z M5.54101563,5.9972992 C5.54101563,3.99850072 7.12075298,2.42922794 9.13064291,2.42922794 C11.1416271,2.42922794 12.7203544,3.99850072 12.7203544,5.9972992 C12.7203544,7.99611861 11.1416271,9.56534954 9.13064291,9.56534954 C7.12075298,9.56534954 5.54101563,7.99611859 5.54101563,5.9972992 Z M9.15408081,4.34226363 C8.22471954,4.34226363 7.51328276,5.04938322 7.51328276,5.97312081 C7.51328276,6.89690621 8.22471954,7.60399394 9.15408081,7.60399394 C10.0842757,7.60399394 10.794927,6.89689029 10.794927,5.97312081 C10.794927,5.04938322 10.0842757,4.34226363 9.15408081,4.34226363" id="Shape"></path>
                </g>
                <g id="Group-64" transform="translate(2.000000, 0.000000)">
                    <polygon id="Rectangle" fill="#FFFFFF" transform="translate(7.679008, 7.483660) rotate(45.000000) translate(-7.679008, -7.483660) " points="-0.643380508 6.13440588 15.8999031 7.10754021 16.0013956 8.83291335 -0.541887971 7.85977902"></polygon>
                    <polygon id="Rectangle-Copy-52" fill="#4A4A4A" transform="translate(8.252142, 6.838883) rotate(45.000000) translate(-8.252142, -6.838883) " points="-0.0702461797 5.48962976 16.4730374 6.46276409 16.5745299 8.18813723 0.0312463577 7.2150029"></polygon>
                </g>
            </g>
        </g>
    </g>
</svg>