<?xml version="1.0" encoding="utf-8"?>
<!-- Generator: Adobe Illustrator 21.0.0, SVG Export Plug-In . SVG Version: 6.00 Build 0)  -->
<svg version="1.1" id="图层_1" xmlns="http://www.w3.org/2000/svg" xmlns:xlink="http://www.w3.org/1999/xlink" x="0px" y="0px"
	 viewBox="0 0 16 16" style="enable-background:new 0 0 16 16;" xml:space="preserve">
<style type="text/css">
	.st0{fill:#9B9B9B;}
</style>
<g>
	<path id="Shape-Copy" class="st0" d="M14,0H2C0.9,0,0,0.9,0,2v12c0,1.1,0.9,2,2,2h12c1.1,0,2-0.9,2-2V2C16,0.9,15.1,0,14,0z M15,14
		c0,0.6-0.4,1-1,1H2c-0.5,0-1-0.4-1-1V2c0-0.5,0.5-1,1-1h12c0.6,0,1,0.5,1,1V14z M12.3,6.7h-2.1l2.2-2.2L11.9,4L9.7,6.2V4.1
		c0-0.2-0.1-0.3-0.3-0.3C9.2,3.7,9,3.9,9,4.1V7c0,0.1,0,0.2,0.1,0.2c0.1,0.1,0.2,0.1,0.2,0.1h2.9c0.2,0,0.3-0.1,0.3-0.3
		C12.6,6.8,12.5,6.7,12.3,6.7z M7.5,8.7H4.5C4.3,8.7,4.2,8.8,4.2,9c0,0.2,0.1,0.3,0.3,0.3h2.1l-2.2,2.2L4.9,12l2.2-2.2v2.1
		c0,0.2,0.1,0.3,0.3,0.3s0.3-0.1,0.3-0.3V9c0-0.1,0-0.2-0.1-0.2C7.6,8.7,7.6,8.7,7.5,8.7z"/>
</g>
</svg>
