<?xml version="1.0" encoding="UTF-8"?>
<svg width="18px" height="18px" viewBox="0 0 18 18" version="1.1" xmlns="http://www.w3.org/2000/svg" xmlns:xlink="http://www.w3.org/1999/xlink">
    <g id="改版" stroke="none" stroke-width="1" fill="none" fill-rule="evenodd">
        <g id="MA设置" transform="translate(-31.000000, -305.000000)" fill="#4B4B4B">
            <path d="M44.0967532,308.755505 L43.5875522,309.366616 C43.2993252,309.711824 43.525103,310.227304 43.9790605,310.269289 L47.9637986,310.628492 C48.4898128,310.675141 48.8957325,310.189984 48.7396096,309.700162 L47.5482714,305.991509 C47.4113635,305.566996 46.8445171,305.462034 46.558692,305.807242 L45.7684697,306.754232 C43.72446,305.287098 41.0991925,304.666656 38.4258872,305.175138 C34.642908,305.893544 31.6669644,308.923444 31.1049218,312.627433 C30.2546522,318.20674 34.6861421,323 40.2681381,323 C44.1063608,323 47.5026354,320.714163 48.8885268,317.311065 C49.1119028,316.765264 49.0038176,316.109835 48.5258412,315.750632 C47.776451,315.18617 46.7628528,315.508053 46.4530088,316.294101 C45.2952971,319.240032 42.0383321,321.040711 38.6396556,320.238336 C36.1392865,319.645884 34.1865486,317.609624 33.7494044,315.146518 C33.0288369,311.090324 36.2257546,307.572934 40.2681381,307.572934 C41.6660389,307.570602 42.994285,307.995114 44.0967532,308.755505 Z" id="Path"></path>
        </g>
    </g>
</svg>