<?xml version="1.0" encoding="UTF-8"?>
<svg width="196px" height="199px" viewBox="0 0 196 199" version="1.1" xmlns="http://www.w3.org/2000/svg" xmlns:xlink="http://www.w3.org/1999/xlink">
    <!-- Generator: Sketch 52.2 (67145) - http://www.bohemiancoding.com/sketch -->
    <title>zhiwen</title>
    <desc>Created with Sketch.</desc>
    <g id="Page-1" stroke="none" stroke-width="1" fill="none" fill-rule="evenodd">
        <g id="zhiwen" fill="#EA3131" fill-rule="nonzero">
            <path d="M7.71484375,136.308594 C6.23046875,136.308594 4.90234375,135.273438 4.58984375,133.769531 C-1.34765625,105.546875 -1.2890625,83.5351562 4.74609375,68.359375 C5.390625,66.71875 7.24609375,65.9179688 8.90625,66.5625 C10.546875,67.2070313 11.3476562,69.0820312 10.703125,70.7226562 C5.13671875,84.7265625 5.1953125,105.488281 10.859375,132.460938 C11.2304688,134.199219 10.1171875,135.898438 8.37890625,136.25 C8.1640625,136.289062 7.9296875,136.308594 7.71484375,136.308594 Z M14.1015625,59.9609375 C32.96875,23.1445312 60.9179688,5.64453125 99.4335938,6.62109375 C101.289063,6.66015625 102.675781,5.2734375 102.714844,3.49609375 C102.753906,1.71875 101.367188,0.25390625 99.5898438,0.21484375 C58.8867188,-0.68359375 28.2421875,18.359375 8.3984375,57.03125 C7.59765625,58.59375 8.203125,60.5273438 9.78515625,61.3476563 C10.2539062,61.5820313 10.7421875,61.6992188 11.25,61.6992188 C12.4023437,61.6992188 13.5351562,61.0742188 14.1015625,59.9609375 Z M191.992187,103.007812 C193.75,102.96875 195.15625,101.503906 195.117188,99.7265625 C193.75,43.5546875 165.371094,10.15625 110.761719,0.4296875 C109.003906,0.09765625 107.363281,1.2890625 107.050781,3.02734375 C106.738281,4.765625 107.910156,6.42578125 109.648438,6.73828125 C161.5625,15.9765625 187.421875,46.4453125 188.710938,99.8828125 C188.75,101.621094 190.175781,103.007812 191.914062,103.007812 L191.992187,103.007812 Z M21.3476562,156.738281 C25.7617188,145.566406 25.8203125,131.171875 21.484375,113.984375 C15.6835938,91.0546875 27.2265625,55.46875 56.5429687,35.6445312 C58.0078125,34.6484375 58.3984375,32.65625 57.4023437,31.1914062 C56.40625,29.7265625 54.4140625,29.3359375 52.9492187,30.3320312 C21.3085937,51.7382812 8.92578125,90.46875 15.2539062,115.546875 C19.2578125,131.40625 19.296875,144.492187 15.390625,154.394531 C14.7460937,156.035156 15.546875,157.890625 17.1875,158.554687 C17.578125,158.710937 17.96875,158.789062 18.359375,158.789062 C19.6484375,158.769531 20.8398437,157.988281 21.3476562,156.738281 Z M182.167969,116.503906 C185.449219,79.6679688 169.804687,56.7578125 160.195312,46.3867188 C131.875,15.6835938 99.0820312,8.671875 62.7539062,25.6054688 C61.1523437,26.3476563 60.4492187,28.2617188 61.2109375,29.8632813 C61.953125,31.4648438 63.8671875,32.1484375 65.46875,31.40625 C99.4726562,15.5859375 128.925781,21.9140625 155.507812,50.7421875 C164.375,60.3515625 178.847656,81.5820313 175.78125,115.9375 C175.625,117.695312 176.933594,119.257813 178.691406,119.414062 C178.789062,119.414062 178.886719,119.433594 178.984375,119.433594 C180.605469,119.433594 182.011719,118.183594 182.167969,116.503906 Z M179.414062,149.277344 C184.355469,130.292969 182.324219,123.183594 182.089844,122.441406 C181.542969,120.78125 179.785156,119.921875 178.125,120.410156 C176.464844,120.917969 175.527344,122.695313 175.996094,124.375 C176.015625,124.433594 177.65625,130.664062 173.242188,147.675781 C172.792969,149.394531 173.828125,151.132812 175.527344,151.582031 C175.800781,151.660156 176.074219,151.679687 176.328125,151.679687 C177.734375,151.679687 179.023438,150.722656 179.414062,149.277344 Z M29.5898437,168.183594 C38.4375,157.773438 41.484375,140.566406 38.6132812,117.050781 C36.640625,100.878906 36.015625,71.1328125 53.9257812,53.5742187 C66.1523437,41.6015625 85.2148437,37.34375 110.546875,40.9375 C112.304687,41.1914062 113.925781,39.9609375 114.160156,38.2226562 C114.414062,36.4648437 113.183594,34.84375 111.445312,34.609375 C84.0039062,30.7226562 63.1445312,35.546875 49.4335937,49.0039062 C29.5703125,68.4765625 30.1367187,100.46875 32.265625,117.8125 C34.9023437,139.472656 32.3632812,155.019531 24.7070312,164.023438 C23.5546875,165.371094 23.7304687,167.382813 25.078125,168.535156 C25.6835937,169.042969 26.40625,169.296875 27.1484375,169.296875 C28.046875,169.316406 28.9648437,168.925781 29.5898437,168.183594 Z M161.71875,169.980469 C172.988281,103.59375 161.289062,60.0585938 126.894531,40.5859375 C125.351562,39.7265625 123.398437,40.2539062 122.539062,41.796875 C121.660156,43.3398437 122.207031,45.2929687 123.75,46.1523437 C155.546875,64.1601563 166.191406,105.46875 155.410156,168.90625 C155.117188,170.644531 156.289063,172.304687 158.027344,172.597656 C158.203125,172.617187 158.378906,172.636719 158.574219,172.636719 C160.097656,172.65625 161.464844,171.542969 161.71875,169.980469 Z M42.4023437,178.867188 C49.0820312,169.902344 52.4609375,160.722656 52.4609375,151.601562 C52.4609375,149.824219 51.0351562,148.398438 49.2578125,148.398438 C47.4804687,148.398438 46.0546875,149.824219 46.0546875,151.601562 C46.0546875,159.316406 43.1054687,167.1875 37.265625,175.039062 C36.2109375,176.464844 36.5039062,178.457031 37.9296875,179.511719 C38.4960937,179.941406 39.1796875,180.136719 39.84375,180.136719 C40.8203125,180.175781 41.7773437,179.726562 42.4023437,178.867188 Z M54.5117187,141.308594 C57.421875,130.136719 57.4414062,117.753906 54.5507812,104.511719 C54.5117187,104.316406 54.453125,104.140625 54.375,103.964844 C51.6992187,97.5585938 52.0898437,84.3554688 57.421875,73.3203125 C60.3710937,67.2070313 66.0351562,59.3359375 76.3085937,56.4453125 C102.148438,49.1601563 119.824219,54.4726563 131.933594,73.1640625 C132.890625,74.6484375 134.882812,75.078125 136.367188,74.1015625 C137.851562,73.1445313 138.28125,71.1523438 137.304688,69.6679688 C123.632812,48.59375 103.125,42.2460938 74.5703125,50.2734375 C64.6289063,53.0664063 56.6992188,60.078125 51.6601562,70.5273438 C45.4101562,83.4960938 45.2929688,98.4570313 48.359375,106.132813 C50.9765625,118.28125 50.9765625,129.570313 48.3203125,139.667969 C47.8710938,141.386719 48.90625,143.125 50.6054688,143.574219 C50.8789062,143.652344 51.1523438,143.671875 51.40625,143.671875 C52.8515625,143.710938 54.140625,142.753906 54.5117188,141.308594 Z M140.996094,184.238281 C153.28125,146.601562 154.238281,112.402344 143.828125,82.5585937 C143.242187,80.8789062 141.40625,80 139.746094,80.5859375 C138.085937,81.171875 137.1875,82.9882812 137.773437,84.6679687 C147.714844,113.164062 146.757812,145.996094 134.902344,182.265625 C134.355469,183.945312 135.273437,185.761719 136.953125,186.308594 C137.285156,186.425781 137.617187,186.464844 137.949219,186.464844 C139.296875,186.445312 140.546875,185.585937 140.996094,184.238281 Z M57.0703125,185.253906 C67.0703125,162.832031 71.2695312,142.148438 69.5898437,123.789062 C69.296875,120.546875 68.984375,117.480469 68.6914062,114.589844 C66.5234375,93.046875 65.9375,84.1210938 73.2421875,80.0976562 C74.7851562,79.2382812 75.3515625,77.3046875 74.4921875,75.7421875 C73.6328125,74.1992188 71.6992187,73.6328125 70.1367187,74.4921875 C58.8671875,80.7226562 60.15625,93.7109375 62.3242187,115.214844 C62.6171875,118.085937 62.9101562,121.132812 63.2226562,124.355469 C64.8046875,141.601562 60.78125,161.210937 51.2304687,182.617187 C50.5078125,184.238281 51.2304687,186.132812 52.8515625,186.835937 C53.28125,187.03125 53.7109375,187.109375 54.1601562,187.109375 C55.3710937,187.148437 56.5429687,186.445312 57.0703125,185.253906 Z M120.683594,196.132812 C126.953125,188.4375 137.636719,145.546875 135.15625,113.769531 C131.777344,89.9414062 124.492187,75.1171875 112.910156,68.4375 C103.90625,63.2421875 92.5390625,63.359375 79.1210937,68.7695312 C77.4804687,69.4335937 76.6796875,71.2890625 77.34375,72.9296875 C78.0078125,74.5703125 79.8632812,75.3515625 81.5039062,74.7070312 C93.0078125,70.0585938 102.5,69.8242188 109.707031,73.9648438 C119.355469,79.53125 125.78125,93.2226562 128.789062,114.453125 C131.171875,145.136719 120.488281,186.210937 115.722656,192.070312 C114.609375,193.4375 114.804687,195.449219 116.191406,196.582031 C116.777344,197.070312 117.5,197.304688 118.203125,197.304688 C119.140625,197.324219 120.058594,196.914062 120.683594,196.132812 Z M71.3671875,192.070313 C82.6757812,168.59375 88.3984375,149.433594 88.3984375,135.15625 C88.3984375,128.886719 87.5,122.285156 86.6210937,115.898438 C84.296875,99.0234375 83.515625,88.5742188 91.8945312,85.546875 C94.9023437,84.5703125 99.3164062,84.0429688 103.320312,87.1875 C108.867187,91.5625 114.921875,103.886719 112.1875,137.753906 C112.050781,139.511719 113.359375,141.054688 115.117187,141.210938 C116.894531,141.328125 118.417969,140.039063 118.574219,138.28125 C120.957031,108.828125 117.148437,89.9609375 107.285156,82.1875 C100.742187,77.03125 93.59375,78.28125 89.8242187,79.5117188 C75.8789062,84.5507813 78.125,100.9375 80.2929687,116.777344 C81.1328125,122.949219 82.0117187,129.335938 82.0117187,135.15625 C82.0117187,148.476563 76.484375,166.679688 65.6054687,189.296875 C64.84375,190.878906 65.5078125,192.792969 67.109375,193.574219 C67.5585937,193.789063 68.0273437,193.886719 68.4960937,193.886719 C69.6679687,193.867188 70.8203125,193.203125 71.3671875,192.070313 Z M104.785156,197.792969 C108.300781,194.570312 113.320312,185.878906 116.464844,147.773438 C116.601562,146.015625 115.292969,144.472656 113.535156,144.316406 C111.757812,144.179687 110.234375,145.488281 110.078125,147.246094 C107.207031,182.050781 102.8125,190.898438 100.449219,193.066406 C99.140625,194.257812 99.0625,196.289062 100.253906,197.597656 C100.878906,198.28125 101.738281,198.632812 102.617187,198.632812 C103.378906,198.632812 104.160156,198.359375 104.785156,197.792969 Z M97.34375,169.082031 C106.523437,142.148438 106.855469,117.324219 98.3203125,95.3125 C97.6757812,93.671875 95.8203125,92.8515625 94.1796875,93.4765625 C92.5390625,94.1210938 91.71875,95.9765625 92.3632812,97.6171875 C100.332031,118.183594 99.9804687,141.523438 91.3085937,167.011719 C90.7421875,168.691406 91.640625,170.507813 93.3007812,171.074219 C93.6523437,171.191406 93.984375,171.25 94.3359375,171.25 C95.6445312,171.25 96.8945312,170.410156 97.34375,169.082031 Z M88.2617187,195.058594 C89.375,193.417969 91.1132812,189.84375 93.359375,177.558594 C93.671875,175.820312 92.5195312,174.160156 90.78125,173.828125 C89.0429687,173.496094 87.3828125,174.667969 87.0507812,176.40625 C85.0195312,187.558594 83.515625,190.625 82.96875,191.445312 C81.9726562,192.910156 82.34375,194.902344 83.8085937,195.898438 C84.3554687,196.269531 84.9804687,196.445312 85.6054687,196.445312 C86.640625,196.445312 87.6367187,195.957031 88.2617187,195.058594 Z" id="Shape"></path>
        </g>
    </g>
</svg>