<?xml version="1.0" encoding="UTF-8"?>
<svg width="25px" height="25px" viewBox="0 0 25 25" version="1.1" xmlns="http://www.w3.org/2000/svg" xmlns:xlink="http://www.w3.org/1999/xlink">
    <!-- Generator: Sketch 52.2 (67145) - http://www.bohemiancoding.com/sketch -->
    <title>Group 35</title>
    <desc>Created with Sketch.</desc>
    <defs>
        <linearGradient x1="0%" y1="50%" x2="100%" y2="50%" id="linearGradient-1">
            <stop stop-color="#F65F5F" offset="0%"></stop>
            <stop stop-color="#EA3131" offset="100%"></stop>
        </linearGradient>
    </defs>
    <g id="改版" stroke="none" stroke-width="1" fill="none" fill-rule="evenodd">
        <g id="常见问题" transform="translate(-32.000000, -835.000000)" fill-rule="nonzero">
            <g id="Group-35" transform="translate(32.000000, 835.000000)">
                <g id="交易-2-copy-5" fill="url(#linearGradient-1)">
                    <path d="M12.4950009,24.9999783 C6.55031188,24.9960525 1.43049154,20.8072544 0.25015212,14.9818142 C-0.930187305,9.15637395 2.15541756,3.30551717 7.62985737,0.988577679 C13.9901177,-1.69795574 21.3243264,1.27939938 24.011271,7.63868645 C26.6982156,13.9979735 23.7204048,21.3310599 17.3601445,24.0175933 C15.8210439,24.668971 14.1663008,25.0031019 12.4950009,24.9999783 Z" id="Shape"></path>
                </g>
                <g id="分组-4" transform="translate(7.352941, 5.882353)" fill="#FFFFFF" stroke="#FCFCFC" stroke-width="0.1">
                    <g id="lixifuji">
                        <path d="M5.14836821,5.72802001 C7.98968265,5.72802001 10.2940694,4.44559369 10.2940694,2.864012 C10.2940694,1.28243032 7.98971479,3.99976122e-06 5.14836821,3.99976122e-06 C2.30705376,-0.00261351289 0.00266696559,1.27981281 0.00266696559,2.86140998 C0.00266696559,4.44556271 2.30702163,5.72802001 5.14836821,5.72802001 Z M5.1510673,0.777854418 C7.49589237,0.777854418 9.65454395,1.8365531 9.65454395,2.73143267 C9.65454395,3.62631223 7.49319327,4.70578064 5.1510673,4.70578064 C2.80624224,4.70578064 0.647590656,3.62626576 0.647590656,2.73143267 C0.644875492,1.83659957 2.80625831,0.777854418 5.1510673,0.777854418 Z M5.14836821,6.92200847 C2.69561137,6.92200847 0.64757459,5.67599501 0.129508492,4.31814096 C0.0485676926,4.5210524 0,4.73173893 0,4.94762952 C0,6.52919572 2.30435466,7.81163752 5.14570124,7.81163752 C7.98701569,7.81163752 10.2914025,6.52921121 10.2914025,4.94762952 C10.2914025,4.73172345 10.2455339,4.52103691 10.161894,4.31814096 C9.65189305,5.6760105 7.60118931,6.92200847 5.14843247,6.92200847 L5.14836821,6.92200847 Z M5.14836821,9.00564148 C2.80622618,9.00564148 0.833748067,7.60618601 0.210465357,6.22750028 C0.0755747357,6.48243672 0.00271516376,6.75036779 0.00271516376,7.02869148 C0.00271516376,8.61025767 2.30706983,9.89269948 5.14841641,9.89269948 C7.98973085,9.89269948 10.2941176,8.61027316 10.2941176,7.02869148 C10.2941176,6.75036779 10.218559,6.47981921 10.0863675,6.22750028 C9.46306868,7.60618601 7.4905745,9.00564148 5.1484646,9.00564148 L5.14836821,9.00564148 Z M5.14836821,10.6756455 C2.69561137,10.6756455 0.64757459,9.42963206 0.129508492,8.07177801 C0.0485676926,8.27468945 0,8.48537599 0,8.70126657 C0,10.2828328 2.30435466,11.5678766 5.14570124,11.5678766 C7.98701569,11.5678766 10.2914025,10.2854503 10.2914025,8.70126657 C10.2914025,8.4853605 10.2455339,8.27467396 10.161894,8.07177801 C9.65189305,9.42964755 7.60118931,10.6756455 5.14843247,10.6756455 L5.14836821,10.6756455 Z M5.14836821,12.3456651 C2.69561137,12.3456651 0.64757459,11.0996516 0.129508492,9.74179755 C0.0485676926,9.94470899 0,10.1553955 0,10.3712861 C0,11.9528523 2.30435466,13.2352941 5.14570124,13.2352941 C7.98701569,13.2352941 10.2914025,11.9528678 10.2914025,10.3712861 C10.2914025,10.15538 10.2455339,9.9446935 10.161894,9.74179755 C9.65189305,11.0996671 7.60118931,12.3456651 5.14843247,12.3456651 L5.14836821,12.3456651 Z" id="形状"></path>
                    </g>
                </g>
            </g>
        </g>
    </g>
</svg>