<?xml version="1.0" encoding="UTF-8"?>
<svg width="25px" height="25px" viewBox="0 0 25 25" version="1.1" xmlns="http://www.w3.org/2000/svg" xmlns:xlink="http://www.w3.org/1999/xlink">
    <!-- Generator: Sketch 52.2 (67145) - http://www.bohemiancoding.com/sketch -->
    <title>Group 38</title>
    <desc>Created with Sketch.</desc>
    <defs>
        <linearGradient x1="0%" y1="50%" x2="100%" y2="50%" id="linearGradient-1">
            <stop stop-color="#F65F5F" offset="0%"></stop>
            <stop stop-color="#EA3131" offset="100%"></stop>
        </linearGradient>
    </defs>
    <g id="改版" stroke="none" stroke-width="1" fill="none" fill-rule="evenodd">
        <g id="常见问题" transform="translate(-32.000000, -937.000000)" fill-rule="nonzero">
            <g id="Group-38" transform="translate(32.000000, 937.000000)">
                <g id="交易-2-copy-4" fill="url(#linearGradient-1)">
                    <path d="M12.4950009,24.9999783 C6.55031188,24.9960525 1.43049154,20.8072544 0.25015212,14.9818142 C-0.930187305,9.15637395 2.15541756,3.30551717 7.62985737,0.988577679 C13.9901177,-1.69795574 21.3243264,1.27939938 24.011271,7.63868645 C26.6982156,13.9979735 23.7204048,21.3310599 17.3601445,24.0175933 C15.8210439,24.668971 14.1663008,25.0031019 12.4950009,24.9999783 Z" id="Shape"></path>
                </g>
                <g id="分组-8-copy" transform="translate(5.882353, 4.411765)" fill="#FAFAFA" stroke="#FFFFFF" stroke-width="0.2">
                    <g id="分组-6">
                        <g id="分组">
                            <g id="yaoqinghaoyou" transform="translate(0.367647, 0.588235)">
                                <path d="M13.3176161,12.0312483 L12.0204504,12.0312483 L12.0204504,13.3203052 C12.0204504,13.5781221 11.8474775,13.7499863 11.5880665,13.7499863 C11.3286278,13.7499863 11.1556825,13.5780946 11.1556825,13.3203052 L11.1556825,12.0312483 L9.85851688,12.0312483 C9.59907822,12.0312483 9.42613293,11.8593567 9.42613293,11.6015672 C9.42613293,11.3437503 9.59910584,11.1718861 9.85851688,11.1718861 L11.1556825,11.1718861 L11.1556825,9.88282922 C11.1556825,9.62501235 11.3286554,9.45314815 11.5880665,9.45314815 C11.8475051,9.45314815 12.0204504,9.62503979 12.0204504,9.88282922 L12.0204504,11.1718861 L13.3176161,11.1718861 C13.5770547,11.1718861 13.75,11.3437778 13.75,11.6015672 C13.75,11.8593841 13.5770271,12.0312483 13.3176161,12.0312483 Z M8.56132362,7.734369 L7.86950102,7.734369 C7.26415798,8.24998902 6.39937628,8.59374486 5.53459458,8.59374486 C4.66981288,8.59374486 3.89151074,8.24998902 3.19968814,7.734369 L2.59434509,7.734369 C1.64308384,7.734369 0.864781698,8.5078059 0.864781698,9.45312071 L0.864781698,11.1718724 C0.864781698,12.1171872 1.64308384,12.8906241 2.59434509,12.8906241 L8.56133743,12.8906241 L8.56133743,13.75 L2.59434509,13.75 C1.12422035,13.75 0,12.6328073 0,11.1718724 L0,9.45312071 C0,8.07812483 1.12422035,6.87499314 2.50787935,6.87499314 C2.0754954,6.1874952 1.7295772,5.24218038 1.7295772,4.29686557 C1.7295772,1.89061591 3.4591406,0 5.62110174,0 C7.78304908,0 9.51262629,1.89062963 9.51262629,4.29686557 C9.51262629,5.24218038 9.16670808,6.1874952 8.73432414,6.87499314 C9.77206494,6.9609321 10.7233124,7.64843004 11.0692306,8.59374486 L10.1179693,8.59374486 C9.77205113,8.07812483 9.25318763,7.734369 8.56136504,7.734369 L8.56132362,7.734369 Z M5.62107413,0.859375857 C3.97799029,0.859375857 2.59434509,2.40624966 2.59434509,4.29687929 C2.59434509,6.18750892 3.97799029,7.73438272 5.62107413,7.73438272 C7.26415798,7.73438272 8.64780317,6.18750892 8.64780317,4.29687929 C8.64780317,2.40624966 7.26415798,0.859375857 5.62107413,0.859375857 Z" id="形状"></path>
                            </g>
                        </g>
                    </g>
                </g>
            </g>
        </g>
    </g>
</svg>