<?xml version="1.0" encoding="UTF-8"?>
<svg width="25px" height="25px" viewBox="0 0 25 25" version="1.1" xmlns="http://www.w3.org/2000/svg" xmlns:xlink="http://www.w3.org/1999/xlink">
    <!-- Generator: Sketch 52.2 (67145) - http://www.bohemiancoding.com/sketch -->
    <title>Group 4</title>
    <desc>Created with Sketch.</desc>
    <defs>
        <linearGradient x1="0%" y1="50%" x2="100%" y2="50%" id="linearGradient-1">
            <stop stop-color="#F65F5F" offset="0%"></stop>
            <stop stop-color="#EA3131" offset="100%"></stop>
        </linearGradient>
    </defs>
    <g id="改版" stroke="none" stroke-width="1" fill="none" fill-rule="evenodd">
        <g id="常见问题" transform="translate(-32.000000, -551.000000)" fill-rule="nonzero">
            <g id="Group-4" transform="translate(32.000000, 551.000000)">
                <g id="Group-36-Copy" fill="url(#linearGradient-1)">
                    <g id="交易-2-copy">
                        <path d="M12.4950009,24.9999783 C6.55031188,24.9960525 1.43049154,20.8072544 0.25015212,14.9818142 C-0.930187305,9.15637395 2.15541756,3.30551717 7.62985737,0.988577679 C13.9901177,-1.69795574 21.3243264,1.27939938 24.011271,7.63868645 C26.6982156,13.9979735 23.7204048,21.3310599 17.3601445,24.0175933 C15.8210439,24.668971 14.1663008,25.0031019 12.4950009,24.9999783 Z" id="Shape"></path>
                    </g>
                </g>
                <g id="lishuaichaxun" transform="translate(5.681818, 5.681818)">
                    <path d="M12.027972,11.5076773 L13.4615385,13.2864665 C13.7062937,13.5768811 13.6713287,14.0488048 13.3916084,14.3029175 L13.2867133,14.3755212 C13.006993,14.6296339 12.5524476,14.5933321 12.3076923,14.3029175 L10.9440559,12.5967319 C9.7902098,13.5042774 8.3916084,14.0125029 6.85314686,14.012503 C3.07692308,14.012503 0,10.8542445 0,7.00625147 C0,3.15825842 3.07692308,0 6.81818182,0 C10.5594406,0 13.6363636,3.15825844 13.6363636,7.00625147 C13.6363636,8.71243706 13.041958,10.3097172 12.027972,11.5076773 Z" id="Path" stroke="#FFFFFF" stroke-width="0.9"></path>
                    <path d="M10.1748252,4.21101125 C10.2447553,4.06580397 10.4545455,4.02950214 10.5944056,4.10210579 C10.7342657,4.17470944 10.7692308,4.35621854 10.6993007,4.50142582 L7.65734266,9.69258624 C7.58741259,9.83779352 7.37762238,9.87409535 7.23776225,9.80149171 C7.09790211,9.72888806 7.06293707,9.54737895 7.13286713,9.40217167 L10.1748252,4.21101125 Z M9.65034965,7.84119336 C9.96503496,7.84119336 10.2097902,7.95009883 10.3846154,8.16790975 C10.5244755,8.34941886 10.5944056,8.63983343 10.5944056,8.96654981 C10.5944056,9.2932662 10.5244755,9.54737895 10.3846154,9.76518988 C10.2097902,9.9830008 9.96503498,10.0919063 9.65034965,10.0919063 C9.33566433,10.0919063 9.09090909,9.98300081 8.91608391,9.76518988 C8.74125874,9.54737895 8.67132866,9.2932662 8.67132868,8.96654981 C8.67132868,8.63983343 8.74125875,8.38572067 8.91608391,8.16790975 C9.09090909,7.95009883 9.33566433,7.84119336 9.65034965,7.84119336 Z M9.65034965,8.4220225 C9.51048952,8.4220225 9.4055944,8.49462615 9.33566434,8.60353161 C9.30069931,8.67613526 9.26573427,8.82134253 9.26573427,8.96654981 C9.26573427,9.11175709 9.3006993,9.25696438 9.33566434,9.32956803 C9.40559441,9.43847349 9.51048952,9.51107714 9.65034965,9.51107714 C9.79020978,9.51107714 9.8951049,9.43847349 9.93006993,9.32956803 C9.96503496,9.25696438 10,9.1117571 10,8.96654981 C10,8.82134252 9.96503498,8.67613524 9.93006993,8.60353161 C9.8951049,8.49462615 9.7902098,8.4220225 9.65034965,8.4220225 Z M8.32167832,3.63018211 C8.63636363,3.63018211 8.88111888,3.73908757 9.05594406,3.9568985 C9.19580419,4.13840761 9.26573427,4.42882218 9.26573427,4.75553856 C9.26573427,5.08225495 9.19580419,5.3363677 9.05594406,5.55417864 C8.88111888,5.77198956 8.63636365,5.88089502 8.32167832,5.88089502 C8.006993,5.88089502 7.76223776,5.77198956 7.58741259,5.55417864 C7.41258741,5.33636771 7.34265734,5.08225496 7.34265735,4.75553856 C7.34265735,4.42882218 7.41258742,4.17470942 7.58741259,3.9568985 C7.76223776,3.73908757 8.006993,3.63018211 8.32167832,3.63018211 Z M8.32167832,4.24731307 C8.18181819,4.24731307 8.07692307,4.31991671 8.00699301,4.42882218 C7.97202798,4.50142582 7.93706294,4.6466331 7.93706294,4.79184039 C7.93706294,4.93704768 7.97202797,5.08225496 8.00699301,5.15485861 C8.07692309,5.26376407 8.18181819,5.33636771 8.32167832,5.3363677 C8.46153846,5.33636769 8.56643357,5.26376405 8.6013986,5.15485861 C8.63636363,5.08225496 8.67132868,4.93704768 8.67132868,4.79184039 C8.67132868,4.6466331 8.63636365,4.50142582 8.6013986,4.42882218 C8.56643357,4.2836149 8.46153847,4.24731307 8.32167832,4.24731307 Z M5,4.02950214 C5.59440559,4.02950214 6.04895105,4.2836149 6.36363636,4.86444404 C6.67832167,5.37266953 6.81818182,6.09870596 6.81818182,6.96994966 C6.81818182,7.84119335 6.67832168,8.53092797 6.36363636,9.07545527 C6.01398601,9.6199826 5.55944055,9.91039717 5,9.91039717 C4.40559441,9.91039717 3.95104895,9.6199826 3.63636364,9.07545527 C3.28671329,8.49462614 3.14685316,7.80489153 3.14685314,6.93364784 C3.14685313,6.06240415 3.28671328,5.37266953 3.6013986,4.82814221 C3.95104895,4.28361488 4.40559441,4.02950214 5,4.02950214 Z M5,4.79184039 C4.58041959,4.79184039 4.30069931,5.04595314 4.16083916,5.55417864 C4.05594406,5.88089502 3.98601398,6.3528187 3.98601398,6.93364784 C3.98601398,7.51447698 4.05594406,7.98640066 4.16083916,8.31311704 C4.33566434,8.82134253 4.61538462,9.07545529 5,9.07545527 C5.38461539,9.07545527 5.66433567,8.82134252 5.83916084,8.31311704 C5.94405595,7.95009883 6.01398602,7.51447698 6.01398602,6.93364784 C6.01398602,6.3528187 5.94405595,5.88089502 5.83916084,5.55417864 C5.66433567,5.04595314 5.38461539,4.79184039 5,4.79184039 Z" id="Shape" fill="#FFFFFF"></path>
                </g>
            </g>
        </g>
    </g>
</svg>