<?xml version="1.0" encoding="UTF-8"?>
<svg width="25px" height="25px" viewBox="0 0 25 25" version="1.1" xmlns="http://www.w3.org/2000/svg" xmlns:xlink="http://www.w3.org/1999/xlink">
    <!-- Generator: Sketch 52.2 (67145) - http://www.bohemiancoding.com/sketch -->
    <title>Group 3</title>
    <desc>Created with Sketch.</desc>
    <defs>
        <linearGradient x1="0%" y1="50%" x2="100%" y2="50%" id="linearGradient-1">
            <stop stop-color="#F65F5F" offset="0%"></stop>
            <stop stop-color="#EA3131" offset="100%"></stop>
        </linearGradient>
    </defs>
    <g id="改版" stroke="none" stroke-width="1" fill="none" fill-rule="evenodd">
        <g id="常见问题" transform="translate(-32.000000, -673.000000)" fill-rule="nonzero">
            <g id="Group-3" transform="translate(32.000000, 673.000000)">
                <g id="Group-35-Copy" fill="url(#linearGradient-1)">
                    <g id="交易-2-copy-5">
                        <path d="M12.4950009,24.9999783 C6.55031188,24.9960525 1.43049154,20.8072544 0.25015212,14.9818142 C-0.930187305,9.15637395 2.15541756,3.30551717 7.62985737,0.988577679 C13.9901177,-1.69795574 21.3243264,1.27939938 24.011271,7.63868645 C26.6982156,13.9979735 23.7204048,21.3310599 17.3601445,24.0175933 C15.8210439,24.668971 14.1663008,25.0031019 12.4950009,24.9999783 Z" id="Shape"></path>
                    </g>
                </g>
                <g id="yingyongpingtai" transform="translate(7.352941, 7.352941)" fill="#FFFFFF" stroke="#FFFFFF" stroke-width="0.3">
                    <path d="M4.61605306,1.13973746e-06 L0.48160227,1.13973746e-06 C0.215620681,1.13973746e-06 0,0.21564099 0,0.481646225 L0,4.61646458 C0,4.88241643 0.21567406,5.09810967 0.48160227,5.09810967 L4.61605306,5.09810967 C4.88203465,5.09810967 5.09765533,4.88246982 5.09765533,4.61646458 L5.09765533,0.481646225 C5.09765533,0.21564099 4.88203465,1.13973746e-06 4.61605306,1.13973746e-06 Z M4.46110276,4.46045345 L0.637599527,4.46045345 L0.637599527,0.636610296 L4.46110276,0.636610296 L4.46110276,4.46045345 Z M11.2820567,1.13973746e-06 L7.14865282,1.13973746e-06 C6.88267123,1.13973746e-06 6.66705055,0.21564099 6.66705055,0.481646225 L6.66705055,4.61646458 C6.66705055,4.88241643 6.88272461,5.09810967 7.14865282,5.09810967 L11.2831036,5.09810967 C11.5490852,5.09810967 11.7647059,4.88246982 11.7647059,4.61646458 L11.7647059,0.481646225 C11.7647062,0.353724385 11.7138224,0.231057128 11.6232779,0.140700994 C11.5327334,0.0503448604 11.4099668,-0.000276951219 11.2820567,1.13973746e-06 Z M11.1271064,4.46045345 L7.30360312,4.46045345 L7.30360312,0.636610296 L11.1271064,0.636610296 L11.1271064,4.46045345 Z M4.61605306,6.66659736 L0.48160227,6.66659736 C0.215620681,6.66659736 0,6.88223721 0,7.14824244 L0,11.2830608 C0,11.5490126 0.21567406,11.7647059 0.48160227,11.7647059 L4.61605306,11.7647059 C4.74378192,11.7647059 4.86627935,11.7139613 4.95659729,11.6236353 C5.04691524,11.5333093 5.09765533,11.410801 5.09765533,11.2830608 L5.09765533,7.14824244 C5.09765533,6.88223721 4.88203465,6.66659736 4.61605306,6.66659736 Z M4.46110276,11.1270497 L0.637599527,11.1270497 L0.637599527,7.30320651 L4.46110276,7.30320651 L4.46110276,11.1270497 Z M11.2820567,6.66659736 L7.14865282,6.66659736 C6.88267123,6.66659736 6.66705055,6.88223721 6.66705055,7.14824244 L6.66705055,11.2830608 C6.66705055,11.5490126 6.88272461,11.7647059 7.14865282,11.7647059 L11.2831036,11.7647059 C11.4108325,11.7647059 11.5333299,11.7139613 11.6236478,11.6236353 C11.7139658,11.5333093 11.7647059,11.410801 11.7647059,11.2830608 L11.7647059,7.14824244 C11.7647062,7.0203206 11.7138224,6.89765335 11.6232779,6.80729721 C11.5327334,6.71694108 11.4099668,6.66631927 11.2820567,6.66659736 Z M11.1271064,11.1270497 L7.30360312,11.1270497 L7.30360312,7.30320651 L11.1271064,7.30320651 L11.1271064,11.1270497 Z" id="Shape"></path>
                </g>
            </g>
        </g>
    </g>
</svg>