<?xml version="1.0" encoding="UTF-8"?>
<svg width="25px" height="25px" viewBox="0 0 25 25" version="1.1" xmlns="http://www.w3.org/2000/svg" xmlns:xlink="http://www.w3.org/1999/xlink">
    <!-- Generator: Sketch 52.2 (67145) - http://www.bohemiancoding.com/sketch -->
    <title>交易-2</title>
    <desc>Created with Sketch.</desc>
    <defs>
        <linearGradient x1="0%" y1="50%" x2="100%" y2="50%" id="linearGradient-1">
            <stop stop-color="#F65F5F" offset="0%"></stop>
            <stop stop-color="#EA3131" offset="100%"></stop>
        </linearGradient>
    </defs>
    <g id="改版" stroke="none" stroke-width="1" fill="none" fill-rule="evenodd">
        <g id="常见问题" transform="translate(-32.000000, -102.000000)" fill-rule="nonzero">
            <g id="交易-2" transform="translate(32.000000, 102.000000)">
                <path d="M0.25015212,14.9818142 C-0.930187305,9.15637395 2.15541756,3.30551717 7.62985737,0.988577679 C13.9901177,-1.69795574 21.3243264,1.27939938 24.011271,7.63868645 C26.6982156,13.9979735 23.7204048,21.3310599 17.3601445,24.0175933 C15.8210439,24.668971 14.1663008,25.0031019 12.4950009,24.9999783 C6.55031188,24.9960525 1.43049154,20.8072544 0.25015212,14.9818142 Z" id="Shape" fill="url(#linearGradient-1)"></path>
                <path d="M18.611971,10.8985816 L6.30957769,10.8985811 C6.08254326,10.8975424 5.88256492,10.7381705 5.81137056,10.5040246 C5.74064071,10.2714064 5.81206531,10.0148418 5.99037947,9.86490527 L10.7070325,5.93434969 C10.9403731,5.75837324 11.2588791,5.81568488 11.4284826,6.06296938 C11.5961228,6.30739139 11.5603391,6.65285196 11.3444835,6.85153267 L7.73131626,9.74717798 L18.6103819,9.74727398 C18.8068847,9.73507945 18.9926076,9.84333162 19.0930289,10.0271454 C19.1925198,10.2092563 19.1925198,10.4365033 19.0930289,10.6186142 C18.9928783,10.8019325 18.8078855,10.9100959 18.611971,10.8985816 Z M12.5053471,19.167647 L12.5052451,19.1676469 C12.2780005,19.1671328 12.0775796,19.0079376 12.0060958,18.7736591 C11.93508,18.540914 12.0064542,18.2840434 12.1849265,18.1339705 L15.7980955,15.2380466 L4.91902982,15.2379506 C4.72252708,15.2501451 4.53680418,15.141893 4.43638289,14.9580791 C4.33689198,14.7759683 4.33689198,14.5487212 4.43638289,14.3666104 C4.53680418,14.1827966 4.72252708,14.0745444 4.91593289,14.0866429 L17.2198341,14.0866435 C17.4468685,14.0876822 17.6468469,14.2470541 17.7180412,14.4812 C17.7887711,14.7138182 17.7173465,14.9703827 17.5390336,15.1203182 L12.8243584,19.0495794 C12.7329066,19.1260973 12.6208116,19.1676727 12.5053471,19.167647 Z" id="Shape" stroke="#FFFFFF" stroke-width="0.1" fill="#FFFFFF"></path>
            </g>
        </g>
    </g>
</svg>