<?xml version="1.0" encoding="UTF-8"?>
<svg width="33px" height="33px" viewBox="0 0 33 33" version="1.1" xmlns="http://www.w3.org/2000/svg" xmlns:xlink="http://www.w3.org/1999/xlink">
    <!-- Generator: Sketch 52.2 (67145) - http://www.bohemiancoding.com/sketch -->
    <title>活动专区</title>
    <desc>Created with Sketch.</desc>
    <g id="改版" stroke="none" stroke-width="1" fill="none" fill-rule="evenodd">
        <g id="活动专区">
            <g id="分组-24-copy-2" fill="#E9EFFD">
                <circle id="椭圆形" cx="16.5" cy="16.5" r="16.5"></circle>
            </g>
            <g id="huodong-copy" transform="translate(8.000000, 8.000000)">
                <path d="M7.87187463,1.5706987 C7.43015252,1.30951471 5.9857553,0.571988817 5.12672505,0.104519387 C4.37613814,-0.303060721 4.14846389,0.571988817 4.07692534,1.17143655 C4.0053868,1.77254789 4.0053868,2.55 4.79231075,2.55 L7.68110518,2.55 C8.46802913,2.55 8.46802913,1.92781649 7.87187463,1.5706987 Z" id="路径" fill="#EA3131"></path>
                <path d="M3.79193606e-06,4.1040942 L3.79193606e-06,5.75524028 C-0.000998935529,6.3664294 0.196538375,6.67462253 0.983679419,6.67462253 L6.8,6.67462253 L6.8,3.27462253 L0.968638507,3.27462327 C0.171971552,3.27410356 3.79193606e-06,3.54643612 3.79193606e-06,4.1040942 Z" id="路径" fill="#4371D3"></path>
                <path d="M0.853938188,14.8675621 C0.861322291,16.1455889 1.56478111,16.8746225 3.06719983,16.8746225 L6.84047619,16.8746225 L6.84047619,8.37462253 L0.853938188,8.37462253 C0.853938188,8.37462253 0.845077265,13.5900572 0.853938188,14.8675621 Z" id="路径" fill="#4371D3"></path>
                <path d="M16.999999,4.17477539 C16.999999,3.61711717 16.7646125,3.27462253 15.9641975,3.27462253 L10.2,3.27462253 L10.2,6.67462253 L16.0095611,6.67462253 C16.8009034,6.67462253 17.0005031,6.39241525 16.999999,5.78122602 C16.9974789,5.22460724 16.9984869,4.73191388 16.999999,4.17477539 Z" id="路径" fill="#4371D3"></path>
                <path d="M13.125472,1.17143655 C13.0539562,0.571988801 12.8263543,-0.303060719 12.0754383,0.104519388 C11.2155459,0.571988818 9.77274286,1.30951471 9.33116113,1.57236229 C8.7340609,1.92781651 8.7340609,2.55 9.52243754,2.55 L12.4097463,2.55 C13.1969878,2.55 13.1969878,1.77199336 13.125472,1.17143655 Z" id="路径" fill="#EA3131"></path>
                <path d="M10.2,8.37462253 L10.2,16.8746225 L13.9221054,16.8746225 C15.4498165,16.8746225 16.1380379,16.0746164 16.146553,14.7976333 C16.155569,13.5196066 16.1440485,8.37462253 16.1440485,8.37462253 L10.2,8.37462253 Z" id="路径" fill="#4371D3"></path>
            </g>
        </g>
    </g>
</svg>