<?xml version="1.0" encoding="UTF-8"?>
<svg width="41px" height="41px" viewBox="0 0 41 41" version="1.1" xmlns="http://www.w3.org/2000/svg" xmlns:xlink="http://www.w3.org/1999/xlink">
    <!-- Generator: Sketch 52.2 (67145) - http://www.bohemiancoding.com/sketch -->
    <title>Group 11</title>
    <desc>Created with Sketch.</desc>
    <g id="改版" stroke="none" stroke-width="1" fill="none" fill-rule="evenodd">
        <g id="新增首页定稿-" transform="translate(-29.000000, -765.000000)">
            <g id="Group-12" transform="translate(15.000000, 746.000000)">
                <g id="Group-11" transform="translate(15.000000, 20.000000)">
                    <path d="M34.411789,10.83342 L32.11789,10.83342 L32.11789,4.33329 C32.1153857,1.94090814 30.0623884,0.00214986757 27.529266,0 L4.588211,0 C2.05524993,0.00236482108 0.00250393999,1.94106024 -1.42108547e-14,4.33329 L-1.42108547e-14,34.66671 C0.00250393999,37.0589398 2.05524993,38.9976352 4.588211,39 L34.411789,39 C36.9447501,38.9976352 38.9974961,37.0589398 39,34.66671 L39,15.16671 C38.9974961,12.7744802 36.9447501,10.8357848 34.411789,10.83342 Z" id="Path" stroke="#4A4A4A" stroke-width="1.5" fill-rule="nonzero"></path>
                    <g id="Group-31" transform="translate(4.000000, 7.000000)" fill="#EA3131" fill-rule="nonzero">
                        <path d="M1.16673667,6.17034324 C1.32148973,6.17044494 1.46993656,6.11443415 1.57936353,6.01465412 C1.6887905,5.91487409 1.75021653,5.77951414 1.750105,5.63840391 L1.750105,2.289369 L4.4149517,5.93367045 C4.52327203,6.08155882 4.70542927,6.17035542 4.90046199,6.17034324 C4.9573983,6.17029405 5.01401225,6.16255061 5.06845863,6.1473653 C5.31460807,6.07963255 5.48302505,5.87285045 5.48299034,5.63840391 L5.48299034,0.532322439 C5.48299034,0.238540457 5.22180744,0.00038310394 4.89962201,0.00038310394 C4.57743657,0.00038310394 4.31625367,0.238540457 4.31625367,0.532322439 L4.31625367,3.88174031 L1.65224696,0.237438862 C1.50957329,0.0426878891 1.24399442,-0.0440605622 0.998157916,0.0237877822 C0.752321406,0.0916361266 0.584075497,0.298115747 0.583788324,0.532322439 L0.583788324,5.63840391 C0.583676883,5.77944776 0.645045278,5.91474961 0.75438138,6.01451861 C0.863717481,6.11428761 1.01205636,6.17034328 1.16673667,6.17034324 Z" id="Path"></path>
                        <path d="M8.16673667,6.17034324 L11.900042,6.17034324 C12.2222274,6.17034324 12.4834103,5.93218589 12.4834103,5.63840391 C12.4834103,5.34462192 12.2222274,5.10646457 11.900042,5.10646457 L8.750105,5.10646457 L8.750105,3.61749399 L11.900042,3.61749399 C12.2222274,3.61749399 12.4834103,3.37933664 12.4834103,3.08555466 C12.4834103,2.79177267 12.2222274,2.55361532 11.900042,2.55361532 L8.750105,2.55361532 L8.750105,1.06387881 L11.900042,1.06387881 C12.2222274,1.06387881 12.4834103,0.825721456 12.4834103,0.531939474 C12.4834103,0.238157491 12.2222274,1.38255425e-07 11.900042,1.38255425e-07 L8.16673667,1.38255425e-07 C8.0119836,-0.000101562856 7.86353677,0.0559092252 7.7541098,0.155689256 C7.64468283,0.255469287 7.5832568,0.390829237 7.58336833,0.531939474 L7.58336833,5.63840391 C7.5832568,5.77951414 7.64468283,5.91487409 7.7541098,6.01465412 C7.86353677,6.11443415 8.0119836,6.17044494 8.16673667,6.17034324 Z" id="Path"></path>
                        <path d="M14.9932801,6.16842841 C15.2594917,6.18857639 15.507811,6.04451446 15.600588,5.81609998 L17.0327593,2.12622562 L18.4661907,5.81609998 C18.548972,6.02839634 18.7692792,6.17024279 19.0163797,6.17034324 C19.0344393,6.17034324 19.0541789,6.17034324 19.0734985,6.16842841 C19.3406213,6.14443579 19.555444,5.9575559 19.5942881,5.71538001 L20.4111718,0.609298542 C20.457202,0.318482102 20.2364838,0.0485367378 19.9176816,0.00574462352 C19.599602,-0.0331939114 19.3056492,0.166644292 19.2557749,0.455729302 L18.7795044,3.43520233 L17.5833683,0.355009327 C17.4153717,-0.0689336849 16.649307,-0.0689336849 16.4829903,0.355009327 L15.2876942,3.43405343 L14.8114238,0.455729302 C14.7597152,0.167657455 14.4670554,-0.0313017192 14.149517,0.00574462352 C13.8307149,0.0485367378 13.6099966,0.318482102 13.6560269,0.609298542 L14.4729105,5.71538001 C14.5117145,5.95742874 14.7263199,6.1442702 14.9932801,6.16842841 Z" id="Path"></path>
                    </g>
                    <path d="M23.8332633,19 L5.1667366,19 C4.52236576,19 4,19.4477153 4,20 C4,20.5522847 4.52236576,21 5.1667366,21 L23.8332633,21 C24.4776341,21 24.9999999,20.5522847 24.9999999,20 C24.9999999,19.4477153 24.4776341,19 23.8332633,19 Z" id="Path" fill="#4A4A4A" fill-rule="nonzero"></path>
                    <path d="M23.8332633,24 L5.16673667,24 C4.5223658,24 4,24.4477153 4,25 C4,25.5522847 4.5223658,26 5.16673667,26 L23.8332633,26 C24.4776342,26 25,25.5522847 25,25 C25,24.4477153 24.4776342,24 23.8332633,24 Z" id="Path" fill="#4A4A4A" fill-rule="nonzero"></path>
                    <path d="M5.1667366,30 C4.52236576,30 4,30.4477153 4,31 C4,31.5522847 4.52236576,32 5.1667366,32 L23.8332633,32 C24.4776341,32 24.9999999,31.5522847 24.9999999,31 C24.9999999,30.4477153 24.4776341,30 23.8332633,30 L5.1667366,30 Z" id="Path" fill="#4A4A4A" fill-rule="nonzero"></path>
                    <polygon id="Path-27" fill="#4A4A4A" points="31 11 31 38.4830322 32.6339264 38.4830322 32.6339264 11"></polygon>
                </g>
            </g>
        </g>
    </g>
</svg>