<?xml version="1.0" encoding="UTF-8"?>
<svg preserveAspectRatio="none" viewBox="0 0 27 26" version="1.1" xmlns="http://www.w3.org/2000/svg" xmlns:xlink="http://www.w3.org/1999/xlink">
    <g id="改版" stroke="none" stroke-width="1" fill="none" fill-rule="evenodd">
        <g id="新增首页定稿-copy-2" transform="translate(-334.000000, -46.000000)" fill="#333333" fill-rule="nonzero" stroke="#333333" stroke-width="0.5">
            <g id="客服" transform="translate(335.000000, 47.000000)">
                <path d="M25,13.0456289 C25,11.1047869 23.6626792,9.48986552 21.8965128,9.13458281 C21.6820901,4.06372954 17.5600948,0 12.5070534,0 C7.46811872,0 3.35458752,4.043176 3.1204153,9.09347572 C1.3457849,9.44288599 0,11.0607436 0,13.007458 C0,15.2066874 1.71820336,16.9948458 3.831396,16.9948458 C4.23767069,16.9948458 4.56776887,16.651308 4.56776887,16.2284922 C4.56776887,16.2020662 4.55648347,16.1785764 4.55366211,16.1521504 C4.55648347,16.1257245 4.56776887,16.1022347 4.56776887,16.0758087 L4.56776887,9.53978127 C4.56776887,5.12370524 8.12831509,1.52977102 12.504232,1.52977102 C16.880149,1.52977102 20.4406952,5.12370524 20.4406952,9.53978127 L20.4406952,9.75412539 C20.4378738,9.77761516 20.4265884,9.7981687 20.4265884,9.82165847 C20.4265884,9.84514823 20.4378738,9.86570178 20.4406952,9.88919155 L20.4406952,15.5619701 C20.4406952,18.6626192 18.1159011,21.2699832 14.9277734,22.1772755 C14.9954858,21.9394416 15.0434488,21.6898628 15.0434488,21.4285392 C15.0434488,19.9692374 13.9036226,18.7830043 12.5014107,18.7830043 C11.0991987,18.7830043 9.95937253,19.9692374 9.95937253,21.4285392 C9.95937253,22.8878409 11.0991987,24.0740741 12.5014107,24.0740741 C17.1566415,24.0740741 21.024715,20.9939785 21.769552,16.971356 C23.5977881,16.6630529 25,15.0275779 25,13.0456289 Z M1.47274574,13.007458 C1.47274574,11.9210563 2.15833427,11.0078917 3.10066584,10.6819712 L3.10066584,15.3300086 C2.15833427,15.0099606 1.47274574,14.0938597 1.47274574,13.007458 Z M11.437761,21.4285392 C11.437761,20.814869 11.9173908,20.3127753 12.5098747,20.3127753 C13.0995373,20.3127753 13.5819885,20.8119328 13.5819885,21.4285392 C13.5819885,22.0451455 13.1023587,22.5443031 12.5098747,22.5443031 C11.9173908,22.5443031 11.437761,22.0422093 11.437761,21.4285392 Z M21.9162623,15.3652433 L21.9162623,10.7260145 C22.8501298,11.0548712 23.5300756,11.9650996 23.5300756,13.0456289 C23.5272543,14.1261581 22.8501298,15.0363866 21.9162623,15.3652433 Z" id="形状"></path>
            </g>
        </g>
    </g>
</svg>