<?xml version="1.0" encoding="UTF-8"?>
<svg width="33px" height="33px" viewBox="0 0 33 33" version="1.1" xmlns="http://www.w3.org/2000/svg" xmlns:xlink="http://www.w3.org/1999/xlink">
    <!-- Generator: Sketch 52.2 (67145) - http://www.bohemiancoding.com/sketch -->
    <title>我的推广</title>
    <desc>Created with Sketch.</desc>
    <g id="改版" stroke="none" stroke-width="1" fill="none" fill-rule="evenodd">
        <g id="我的推广">
            <g id="分组-24" fill="#E9EFFD">
                <circle id="椭圆形" cx="16.5" cy="16.5" r="16.5"></circle>
            </g>
            <g id="tuiguangrenguanli-" transform="translate(8.000000, 7.000000)">
                <path d="M7.31728604,13.7290181 C7.33151452,13.4263177 7.57881547,13.1814463 7.89346266,13.158502 L8.44270116,13.158502 L8.44270116,15.6201997 L7.8919661,15.6201997 C7.57858059,15.5935205 7.33315453,15.3498935 7.31578947,15.0482466 L7.31728604,13.7290181 Z M13.6597186,11.4110272 C13.8391048,11.1960312 14.0970385,11.0547202 14.3810618,11.0158335 C14.59181,10.9858623 14.8050196,11.0523342 14.9572384,11.195467 C15.1473019,11.3607298 15.2969581,11.5705418 15.3927381,11.8019097 C15.5124631,12.0792639 15.6097397,12.3681146 15.6785816,12.6627135 C15.7578994,12.9918021 15.8162654,13.326639 15.8596657,13.66435 C15.8925901,13.9862532 15.8432035,14.3426461 15.8806176,14.6645494 C15.8955832,14.9878897 15.8836107,15.3083559 15.8596657,15.6302591 C15.8227359,15.9347976 15.7494206,16.2342417 15.6411675,16.5226784 C15.5859108,16.7810746 15.4736434,17.0251042 15.3119237,17.2383383 C15.2220519,17.4219497 15.0863337,17.5813977 14.9168312,17.7025113 C14.7887909,17.8093765 14.6147813,17.8500784 14.4499037,17.8117285 C14.240882,17.7560482 14.060704,17.6280784 13.9440655,17.4524615 C13.74869,17.2324577 13.5013668,17.0604984 13.2227223,16.9509247 C12.9009613,16.8072179 12.5762072,16.7008749 12.2544462,16.5945318 C11.9017586,16.4878183 11.5387444,16.4155981 11.1709349,16.3789716 C10.8360584,16.3172506 10.4985032,16.2697809 10.1592585,16.2367019 C9.91221954,16.2127344 9.6684576,16.16409 9.43192907,16.091558 C9.30648265,16.0938875 9.18682947,16.0409398 9.10717497,15.9478512 L9.10717497,13.1268865 C9.17263062,13.022538 9.27695613,12.9459917 9.39900471,12.9127634 C9.59615633,12.8363088 9.80387376,12.7878962 10.0155885,12.7690566 C10.2700042,12.7331299 10.5588408,12.6627135 10.8835949,12.6239127 C11.2113421,12.5606817 11.5360962,12.4758947 11.8533674,12.376737 C12.1930872,12.2747051 12.5163447,12.145369 12.8261332,11.9829803 C13.1194595,11.807658 13.3963236,11.6165279 13.6597186,11.4110272 Z M10.4870058,17.1319953 C10.5274129,17.2297159 10.5782961,17.3288736 10.6306758,17.4179718 L10.8506705,17.7427492 C10.9644092,17.8907672 11.0721618,18.0445335 11.1754246,18.2069222 C11.280184,18.3865557 11.3535155,18.4900246 11.423854,18.6351685 C11.4888772,18.7312013 11.5027523,18.8511124 11.461268,18.9585088 C11.4161897,19.0516513 11.316656,19.1091113 11.2098455,19.1036527 L10.7040073,19.1036527 C10.5922945,19.0965426 10.4825692,19.0717798 10.3792532,19.0303622 C10.260877,18.9925455 10.159159,18.917645 10.0904167,18.8176762 C9.97556046,18.7140712 9.87901875,18.5932166 9.80457318,18.4598462 C9.68831646,18.2975713 9.57994899,18.130213 9.47981909,17.9583094 C9.34659872,17.7732987 9.24878999,17.5669658 9.19098248,17.3489926 C9.14242689,17.2108642 9.12557905,17.064281 9.14159592,16.9193092 C9.10420823,16.8027341 9.10420823,16.6780544 9.14159592,16.5614793 C9.21193436,16.5614793 9.24635531,16.597406 9.31669374,16.597406 C9.37004213,16.612995 9.42458572,16.6245272 9.47981909,16.6318956 C9.5875716,16.6318956 9.65791004,16.6663852 9.76865567,16.6663852 C9.87341505,16.7008749 9.94973976,16.7008749 10.0544991,16.7382386 C10.1248376,16.7741653 10.1981692,16.7741653 10.2715007,16.8115291 C10.2924526,16.8546412 10.3298667,16.8819454 10.3792532,16.8819454 C10.422548,16.9621846 10.4585976,17.045841 10.4870058,17.1319953 Z" id="形状" fill="#EA3131" fill-rule="nonzero"></path>
                <path d="M8.4586466,11.2781955 C5.349188,11.2781955 2.81954887,8.74842641 2.81954887,5.63909773 C2.81954887,2.52976905 5.34918803,0 8.4586466,0 C11.5681052,0 14.0977443,2.52976907 14.0977444,5.63909773 C14.0977444,8.74842639 11.5681052,11.2781955 8.4586466,11.2781955 Z" id="形状" fill="#4371D3" fill-rule="nonzero"></path>
                <path d="M4.58729111,5.63909773 C4.58729111,7.80083785 6.32321399,9.55843403 8.4586466,9.55843406 C10.5940792,9.55843408 12.3300021,7.80083787 12.3300021,5.63909773 C12.3300021,3.47907736 10.5940792,1.71976143 8.4586466,1.71976143 C6.32321399,1.71976143 4.58729111,3.47735762 4.58729111,5.63909773 Z" id="路径" fill="#4371D3" fill-rule="nonzero"></path>
                <path d="M0.857631784,19.1729323 C0.383974838,19.1729323 1.29515565e-08,18.7990641 0,18.3378743 C0,13.5112389 3.91594668,9.58646619 8.7289762,9.58646617 C9.20257777,9.58654242 9.58646617,9.9603883 9.58646617,10.4215242 C9.58646617,10.8826601 9.20257777,11.256506 8.7289762,11.2565822 C4.86277216,11.2565822 1.71526355,14.433143 1.71526355,18.3378743 C1.71526353,18.7990641 1.33128872,19.1729323 0.857631784,19.1729323 Z" id="路径" fill="#4371D3"></path>
            </g>
        </g>
    </g>
</svg>